<?xml version="1.0" encoding="utf-8"?>
<!-- Generator: Adobe Illustrator 16.0.0, SVG Export Plug-In . SVG Version: 6.00 Build 0)  -->
<!DOCTYPE svg PUBLIC "-//W3C//DTD SVG 1.1//EN" "http://www.w3.org/Graphics/SVG/1.1/DTD/svg11.dtd">
<svg version="1.1" id="Layer_1" xmlns="http://www.w3.org/2000/svg" xmlns:xlink="http://www.w3.org/1999/xlink" x="0px" y="0px"
	 width="360.349px" height="52.391px" viewBox="0 0 360.349 52.391" enable-background="new 0 0 360.349 52.391"
	 xml:space="preserve">
<g>
	<g>
		<path fill="#EE3524" d="M0,1.691h39.497v11.576H13.47v7.436h23.572v10.733H13.47v7.788h26.378v11.575H0V1.691z"/>
		<path fill="#EE3524" d="M43.385,1.691h12.698l20.204,25.957V1.691h13.471v49.108H77.832L56.855,23.86v26.938h-13.47V1.691z"/>
		<path fill="#EE3524" d="M93.685,1.691h18.942c17.539,0,27.711,10.102,27.711,24.273v0.14c0,14.171-10.313,24.694-27.992,24.694
			H93.685V1.691z M112.837,38.733c8.138,0,13.54-4.491,13.54-12.418v-0.14c0-7.856-5.402-12.417-13.54-12.417h-5.542v24.976H112.837
			z"/>
		<path fill="#EE3524" d="M142.944,26.385v-0.139c0-14.312,11.225-25.537,26.45-25.537c8.627,0,14.731,2.666,19.923,7.156
			l-7.999,9.611c-3.507-2.946-7.015-4.63-11.855-4.63c-7.086,0-12.558,5.963-12.558,13.469v0.14c0,7.928,5.542,13.61,13.329,13.61
			c3.298,0,5.823-0.702,7.858-2.034v-5.963h-9.681v-9.962H191v22.099c-5.191,4.28-12.417,7.577-21.327,7.577
			C154.38,51.782,142.944,41.258,142.944,26.385z"/>
		<path fill="#EE3524" d="M212.311,1.34h13.119l20.907,49.459h-14.592l-3.578-8.769h-18.942l-3.509,8.769h-14.311L212.311,1.34z
			 M224.237,31.436l-5.471-13.96l-5.543,13.96H224.237z"/>
		<path fill="#EE3524" d="M249.063,1.691h14.381l11.717,19.012l11.716-19.012h14.382v49.108h-13.541V22.597l-12.558,19.223h-0.28
			l-12.49-19.082v28.062h-13.329V1.691z"/>
		<path fill="#EE3524" d="M305.188,1.691h39.497v11.576h-26.027v7.436h23.573v10.733h-23.573v7.788h26.377v11.575h-39.847V1.691z"/>
	</g>
	<rect x="348.71" y="39.224" fill="#EE3524" width="11.639" height="11.638"/>
</g>
</svg>
