<?xml version="1.0" encoding="utf-8"?>
<!-- Generator: Adobe Illustrator 16.0.1, SVG Export Plug-In . SVG Version: 6.00 Build 0)  -->
<!DOCTYPE svg PUBLIC "-//W3C//DTD SVG 1.1//EN" "http://www.w3.org/Graphics/SVG/1.1/DTD/svg11.dtd">
<svg version="1.1" id="Layer_1" xmlns="http://www.w3.org/2000/svg" xmlns:xlink="http://www.w3.org/1999/xlink" x="0px" y="0px"
	 width="500px" height="500px" viewBox="0 0 500 500" enable-background="new 0 0 500 500" xml:space="preserve">
<g>
	<g>
		<path fill="#FFFFFF" d="M431,363H74c-4,0-7.5-3.5-7.5-7.5V130c0-4,3.5-7.5,7.5-7.5h356.5c4,0,7.5,3.5,7.5,7.5v225
			C438.5,359.5,435,363,431,363z M81.5,348H423V138H81.5V348z"/>
	</g>
	<g>
		<path fill="#FFFFFF" d="M252.5,270.5c-1.5,0-3-0.5-4.5-1.5L69.5,136c-3.5-2.5-4-7-1.5-10.5s7-4,10.5-1.5l174,129.5l174-129.5
			c3.5-2.5,8-2,10.5,1.5s2,8-1.5,10.5L257,269C255.5,270,254,270.5,252.5,270.5z"/>
	</g>
	<g>
		<path fill="#FFFFFF" d="M74,363c-2,0-4.5-1-6-2.5c-2.5-3-2-8,1-10.5l143.5-118c3-2.5,8-2,10.5,1s2,8-1,10.5L79,361
			C77.5,362,76,363,74,363z"/>
	</g>
	<g>
		<path fill="#FFFFFF" d="M431,363c-1.5,0-3.5-0.5-5-1.5L282.5,243c-3-2.5-3.5-7.5-1-10.5s7.5-3.5,10.5-1l143.5,118
			c3,2.5,3.5,7.5,1,10.5C435,362,433,363,431,363z"/>
	</g>
</g>
</svg>
