<?xml version="1.0" encoding="utf-8"?>
<!-- Generator: Adobe Illustrator 17.1.0, SVG Export Plug-In . SVG Version: 6.00 Build 0)  -->
<!DOCTYPE svg PUBLIC "-//W3C//DTD SVG 1.1//EN" "http://www.w3.org/Graphics/SVG/1.1/DTD/svg11.dtd">
<svg version="1.1" xmlns="http://www.w3.org/2000/svg" xmlns:xlink="http://www.w3.org/1999/xlink" x="0px" y="0px"
	 viewBox="0 0 317.809 295.385" enable-background="new 0 0 317.809 295.385" xml:space="preserve">
<g id="Layer_1">
	<g>
		
			<rect x="257.308" y="129.835" transform="matrix(0.7071 -0.7071 0.7071 0.7071 -25.4291 241.6651)" fill="#EE3124" width="43.387" height="43.387"/>
		
			<rect x="275.894" y="183.494" transform="matrix(0.7072 -0.707 0.707 0.7072 -50.2379 251.8937)" fill="#EE3124" width="6.213" height="6.214"/>
		<g>
			<path fill="#FFFFFF" d="M282.277,135.379v1.615l-1.707,20.486h-3.092l-1.753-20.486v-1.615H282.277z M275.956,167.677v-6.321
				h6.137v6.321H275.956z"/>
		</g>
	</g>
	<g>
		
			<rect x="36.866" y="64.18" transform="matrix(0.7071 -0.7071 0.7071 0.7071 -44.573 68.9805)" fill="#EE3124" width="48.229" height="48.23"/>
		
			<rect x="57.527" y="123.828" transform="matrix(0.7072 -0.707 0.707 0.7072 -72.1349 80.3818)" fill="#EE3124" width="6.907" height="6.907"/>
		<g>
			<path fill="#FFFFFF" d="M64.622,70.343v1.795l-1.897,22.773h-3.437l-1.949-22.773v-1.795H64.622z M57.595,106.246v-7.027h6.822
				v7.027H57.595z"/>
		</g>
	</g>
	<g>
		
			<rect x="88.158" y="31.423" transform="matrix(0.7071 -0.7071 0.7071 0.7071 -3.1948 87.9485)" fill="#EE3124" width="32.816" height="32.816"/>
		
			<rect x="102.216" y="72.008" transform="matrix(0.7072 -0.707 0.707 0.7072 -21.9553 95.7013)" fill="#EE3124" width="4.699" height="4.7"/>
		<g>
			<path fill="#FFFFFF" d="M107.044,35.616v1.221l-1.291,15.495h-2.339l-1.326-15.495v-1.221H107.044z M102.263,60.045v-4.781h4.642
				v4.781H102.263z"/>
		</g>
	</g>
	<g>
		
			<rect x="43.236" y="201.794" transform="matrix(0.7071 -0.7071 0.7071 0.7071 -138.9619 111.2481)" fill="#EE3124" width="43.143" height="43.143"/>
		
			<rect x="61.718" y="255.152" transform="matrix(0.7072 -0.707 0.707 0.7072 -163.6042 121.4323)" fill="#EE3124" width="6.178" height="6.179"/>
		<g>
			<path fill="#FFFFFF" d="M68.065,207.307v1.606l-1.697,20.371h-3.074l-1.743-20.371v-1.606H68.065z M61.779,239.424v-6.286h6.102
				v6.286H61.779z"/>
		</g>
	</g>
	<g>
		<polygon fill="#67A3AB" points="206.808,177.687 207.902,176.915 207.902,112.047 169.884,112.047 169.884,161.623 		"/>
		<polygon fill="#67A3AB" points="124.088,141.7 124.088,104.238 215.709,104.238 215.709,180.962 215.185,181.331 229.333,187.486 
			229.333,90.617 110.464,90.617 110.464,135.773 		"/>
		<g>
			<polygon fill="#67A3AB" points="190.817,186.781 153.907,170.724 153.907,188.115 153.893,188.115 153.893,212.836 
				190.817,186.781 			"/>
			<polygon fill="#67A3AB" points="199.115,190.391 199.115,190.391 199.195,190.426 153.893,222.399 108.096,190.058 
				108.096,188.115 108.096,150.794 94.473,144.867 94.473,197.115 153.893,239.074 213.342,197.115 213.342,196.58 			"/>
		</g>
	</g>
	<g>
		<g>
			
				<rect x="13.355" y="133.095" transform="matrix(0.7071 -0.7071 0.7071 0.7071 -100.3334 72.8891)" fill="none" stroke="#929497" stroke-width="2" stroke-miterlimit="10" width="48.926" height="48.927"/>
			
				<rect x="34.314" y="193.605" transform="matrix(-0.7072 -0.7071 0.7071 -0.7072 -74.806 363.2332)" fill="none" stroke="#929497" stroke-width="2" stroke-miterlimit="10" width="7.007" height="7.006"/>
		</g>
		<g>
			<path fill="#EE3124" d="M41.513,139.347v1.821l-1.925,23.102h-3.487l-1.977-23.102v-1.821H41.513z M34.385,175.768v-7.128h6.92
				v7.128H34.385z"/>
		</g>
	</g>
	<g>
		<g>
			
				<rect x="236.225" y="202.305" transform="matrix(0.7071 -0.7071 0.7071 0.7071 -83.9956 250.7527)" fill="none" stroke="#929497" stroke-width="2" stroke-miterlimit="10" width="48.926" height="48.927"/>
			
				<rect x="257.184" y="262.815" transform="matrix(-0.7072 -0.7071 0.7071 -0.7072 256.7314 638.9671)" fill="none" stroke="#929497" stroke-width="2" stroke-miterlimit="10" width="7.007" height="7.006"/>
		</g>
		<g>
			<path fill="#EE3124" d="M264.382,208.557v1.821l-1.925,23.102h-3.487l-1.977-23.102v-1.821H264.382z M257.254,244.979v-7.128
				h6.92v7.128H257.254z"/>
		</g>
	</g>
	<g>
		<g>
			
				<rect x="242.115" y="44.741" transform="matrix(0.7071 -0.7071 0.7071 0.7071 29.1438 208.7685)" fill="none" stroke="#929497" stroke-width="2" stroke-miterlimit="10" width="48.926" height="48.927"/>
			
				<rect x="263.074" y="105.251" transform="matrix(-0.7072 -0.7071 0.7071 -0.7072 378.1934 374.1463)" fill="none" stroke="#929497" stroke-width="2" stroke-miterlimit="10" width="7.007" height="7.006"/>
		</g>
		<g>
			<path fill="#EE3124" d="M270.272,50.993v1.821l-1.925,23.102h-3.487l-1.977-23.102v-1.821H270.272z M263.144,87.415v-7.128h6.92
				v7.128H263.144z"/>
		</g>
	</g>
</g>
<g id="Layer_2">
</g>
</svg>
