<?xml version="1.0" encoding="utf-8"?>
<!-- Generator: Adobe Illustrator 17.1.0, SVG Export Plug-In . SVG Version: 6.00 Build 0)  -->
<!DOCTYPE svg PUBLIC "-//W3C//DTD SVG 1.1//EN" "http://www.w3.org/Graphics/SVG/1.1/DTD/svg11.dtd">
<svg version="1.1" xmlns="http://www.w3.org/2000/svg" xmlns:xlink="http://www.w3.org/1999/xlink" x="0px" y="0px"
	 viewBox="0 0 317.809 295.385" enable-background="new 0 0 317.809 295.385" xml:space="preserve">
<g id="Layer_1">
</g>
<g id="Layer_2">
	<g>
		<rect x="57.402" y="72.482" fill="#D0D2D3" width="193.336" height="118.597"/>
		<rect x="57.402" y="72.482" fill="#929497" width="193.336" height="11.058"/>
		<circle fill="#FFFFFF" cx="66.646" cy="78.011" r="2.505"/>
		<circle fill="#FFFFFF" cx="242.877" cy="78.011" r="2.505"/>
		<circle fill="#FFFFFF" cx="234.584" cy="78.011" r="2.505"/>
		<rect x="66.646" y="92.093" fill="#FFFFFF" width="113.773" height="41.862"/>
		<rect x="66.646" y="138.606" fill="#FFFFFF" width="113.773" height="41.862"/>
		<rect x="186.12" y="92.092" fill="#BBBDBF" width="58.053" height="27.731"/>
	</g>
	<path fill="#FFFFFF" stroke="#A6A8AB" stroke-miterlimit="10" d="M128.915,223.083c0,3.614-2.93,6.544-6.544,6.544H39.464
		c-3.614,0-6.544-2.93-6.544-6.544v-84.759c0-3.614,2.93-6.544,6.544-6.544h82.908c3.614,0,6.544,2.93,6.544,6.544V223.083z"/>
	<rect x="42.268" y="202.049" fill="#67A3AB" width="9.115" height="20.8"/>
	<rect x="56.291" y="194.571" fill="#67A3AB" width="9.115" height="28.279"/>
	<rect x="70.313" y="178.912" fill="#ED3325" width="9.115" height="43.937"/>
	<rect x="42.268" y="178.912" fill="none" stroke="#A6A8AB" stroke-miterlimit="10" width="9.115" height="43.937"/>
	<rect x="56.291" y="178.912" fill="none" stroke="#A6A8AB" stroke-miterlimit="10" width="9.115" height="43.937"/>
	<rect x="84.336" y="178.912" fill="none" stroke="#A6A8AB" stroke-miterlimit="10" width="9.115" height="43.937"/>
	<rect x="98.358" y="178.912" fill="none" stroke="#A6A8AB" stroke-miterlimit="10" width="9.115" height="43.937"/>
	<rect x="112.381" y="178.912" fill="none" stroke="#A6A8AB" stroke-miterlimit="10" width="9.115" height="43.937"/>
	<rect x="84.336" y="191.299" fill="#67A3AB" width="9.115" height="31.551"/>
	<rect x="98.358" y="199.479" fill="#67A3AB" width="9.115" height="23.371"/>
	<rect x="112.381" y="206.723" fill="#67A3AB" width="9.115" height="16.126"/>
	<path fill="#ED3325" d="M60.848,147.829"/>
	<g>
		<circle fill="none" stroke="#A6A8AB" stroke-miterlimit="10" cx="55.356" cy="153.493" r="14.724"/>
		<path fill="#ED3325" d="M55.927,154.561l-6.963-12.377c-3.939,2.231-6.599,6.458-6.599,11.309c0,7.175,5.816,12.992,12.991,12.992
			s12.991-5.816,12.991-12.992c0-1.883-0.404-3.671-1.125-5.287L55.927,154.561z"/>
	</g>
	<line fill="none" stroke="#BBBDBF" stroke-miterlimit="10" x1="79.88" y1="142.184" x2="121.496" y2="142.184"/>
	<line fill="none" stroke="#BBBDBF" stroke-miterlimit="10" x1="79.88" y1="146.858" x2="121.496" y2="146.858"/>
	<line fill="none" stroke="#BBBDBF" stroke-miterlimit="10" x1="79.88" y1="151.533" x2="121.496" y2="151.533"/>
	<line fill="none" stroke="#BBBDBF" stroke-miterlimit="10" x1="79.88" y1="156.207" x2="121.496" y2="156.207"/>
	<line fill="none" stroke="#BBBDBF" stroke-miterlimit="10" x1="79.88" y1="160.881" x2="121.496" y2="160.881"/>
	<polygon fill="#ED3325" points="79.88,169.817 79.88,156.674 99.342,153.08 121.496,142.184 121.496,169.67 	"/>
	<line fill="none" stroke="#BBBDBF" stroke-miterlimit="10" x1="79.88" y1="165.555" x2="121.496" y2="165.555"/>
	<line fill="none" stroke="#BBBDBF" stroke-miterlimit="10" x1="121.496" y1="170.229" x2="79.88" y2="170.229"/>
	<g>
		<g>
			<rect x="135.436" y="147.807" fill="#FFFFFF" stroke="#A6A8AB" stroke-miterlimit="10" width="135.42" height="83.07"/>
			<rect x="135.436" y="147.807" fill="#929497" width="135.42" height="7.745"/>
			<circle fill="#FFFFFF" cx="141.911" cy="151.68" r="1.755"/>
			<circle fill="#FFFFFF" cx="265.35" cy="151.68" r="1.755"/>
			<circle fill="#FFFFFF" cx="259.541" cy="151.68" r="1.755"/>
		</g>
		<rect x="172.56" y="159.715" fill="#D0D2D3" width="86.982" height="41.559"/>
		<rect x="223.119" y="205.01" fill="#D0D2D3" width="36.423" height="20.546"/>
	</g>
	<polygon fill="#67A3AB" points="79.88,170.229 79.88,164.89 92.866,158.696 99.342,156.009 108.179,159.479 121.496,152.469 
		121.496,170.082 	"/>
	<path fill="#67A3AB" d="M123.373,225.902h40.299v-15.977c0-14.067,11.405-25.47,25.47-25.47c14.068,0,25.471,11.404,25.471,25.47
		v35.977h-11.99v-35.223c0-7.445-6.035-13.48-13.481-13.48c-7.444,0-13.481,6.035-13.481,13.48h-0.001v15.223h9.253
		c1.322,0.587,2.247,1.906,2.247,3.445v38.112c0,2.086-1.689,3.775-3.774,3.775h-58.487c-2.084,0-3.774-1.689-3.773-3.776v-38.111
		C121.126,227.808,122.051,226.488,123.373,225.902z"/>
	<g>
		<circle fill="#FFFFFF" cx="154" cy="259.025" r="4.277"/>
		<path fill="#FFFFFF" d="M153.999,233.337c-6.558,0-12.723,2.552-17.354,7.188c-1.034,1.034-1.034,2.708,0,3.739
			c0.517,0.517,1.194,0.775,1.87,0.775c0.677,0,1.353-0.258,1.871-0.775c3.634-3.635,8.469-5.639,13.613-5.639
			c5.145,0,9.979,2.004,13.617,5.639c1.033,1.035,2.705,1.035,3.74,0c1.033-1.034,1.033-2.705,0-3.739
			C166.719,235.887,160.557,233.337,153.999,233.337z"/>
		<path fill="#FFFFFF" d="M153.999,243.838c-4.449,0-8.626,1.733-11.765,4.874c-1.032,1.032-1.032,2.709,0.002,3.743
			c1.034,1.027,2.709,1.03,3.742-0.004c2.139-2.144,4.988-3.32,8.022-3.32c3.034,0,5.888,1.181,8.031,3.32
			c0.517,0.517,1.195,0.776,1.872,0.776c0.676,0,1.354-0.259,1.869-0.776c1.033-1.033,1.033-2.709,0-3.739
			C162.626,245.57,158.444,243.838,153.999,243.838z"/>
	</g>
	<path fill="#4D7477" d="M160.851,33.729c-2.891-8.89-11.24-15.318-21.094-15.318c-8.479,0-15.844,4.759-19.577,11.751
		c-7.827,0.56-14.003,7.083-14.003,15.052c0,8.337,6.759,15.096,15.096,15.096c2.181,0,4.251-0.466,6.123-1.298
		c3.532,2.375,7.785,3.762,12.362,3.762c4.881,0,9.391-1.58,13.054-4.252c1.961,1.135,4.235,1.787,6.663,1.787
		c7.36,0,13.326-5.966,13.326-13.326C172.799,40.09,167.563,34.419,160.851,33.729z"/>
	<path fill="#67A3AB" d="M202.134,39.683c-2.298-7.068-8.936-12.178-16.77-12.178c-6.741,0-12.596,3.784-15.564,9.342
		c-6.222,0.446-11.133,5.631-11.133,11.967c0,6.628,5.373,12.001,12.001,12.001c1.734,0,3.38-0.37,4.868-1.032
		c2.808,1.889,6.189,2.991,9.828,2.991c3.88,0,7.466-1.256,10.378-3.38c1.559,0.902,3.367,1.421,5.297,1.421
		c5.851,0,10.594-4.743,10.594-10.594C211.633,44.74,207.47,40.231,202.134,39.683z"/>
</g>
</svg>
