<?xml version="1.0" encoding="utf-8"?>
<!-- Generator: Adobe Illustrator 17.1.0, SVG Export Plug-In . SVG Version: 6.00 Build 0)  -->
<!DOCTYPE svg PUBLIC "-//W3C//DTD SVG 1.1//EN" "http://www.w3.org/Graphics/SVG/1.1/DTD/svg11.dtd">
<svg version="1.1" xmlns="http://www.w3.org/2000/svg" xmlns:xlink="http://www.w3.org/1999/xlink" x="0px" y="0px"
	 viewBox="0 0 317.809 295.385" enable-background="new 0 0 317.809 295.385" xml:space="preserve">
<g id="Layer_1">
</g>
<g id="Layer_2">
	<g>
		<g>
			<g>
				<path fill="#A6A8AB" d="M174.036,292.084c-74.458,0-135.033-60.575-135.033-135.033S99.578,22.018,174.036,22.018
					c74.457,0,135.033,60.576,135.033,135.033S248.493,292.084,174.036,292.084z M174.036,26.299
					c-72.097,0-130.752,58.655-130.752,130.752c0,72.096,58.655,130.752,130.752,130.752s130.752-58.655,130.752-130.752
					C304.787,84.954,246.132,26.299,174.036,26.299z"/>
			</g>
			<path fill="#67A3AB" d="M121.972,41.283c0,0-9.989,4.567-18.837,12.843S90.862,67.255,90.862,67.255s5.423,0,6.279,1.712
				c0.856,1.712,1.998,3.139,1.712,8.562c-0.285,5.423,2.854,16.268,3.996,17.41s2.283,8.277,0.285,8.562
				c-1.998,0.285-5.423,1.427-6.279,5.994c-0.856,4.567-5.423,14.27-3.425,19.122c1.998,4.852,0.571,7.706,2.854,9.704
				c2.283,1.998,8.562,7.135,11.416,12.558c2.854,5.423,7.991,13.414,9.133,14.27s1.142,9.704,11.131,15.412
				s12.558,1.998,13.129,3.425c0.571,1.427,3.996,5.423,7.706,5.994s7.706,4.281,9.418,6.564s7.421,7.421,9.989,5.708
				c2.569-1.712,5.377-1.026,5.828,0.343c0.451,1.369,2.765,5.08-0.675,8.79c-3.44,3.71-6.865,9.704-5.724,11.131
				c1.142,1.427-2.283,2.854,3.71,10.275s11.131,14.556,15.127,15.412c3.996,0.856,2.854,5.423,2.854,9.133
				c0,3.71-0.856,10.845-1.712,14.556c-0.856,3.71-2.569,9.133-1.142,9.704s10.56,0.285,13.129-1.427
				c2.569-1.712,9.989-8.277,12.272-8.848s6.279-3.71,9.989-6.564c3.71-2.854,1.712-4.281,4.852-7.991
				c3.139-3.71,9.418-6.564,11.702-7.991c2.283-1.427,4.566-8.848,6.564-11.987c1.998-3.139,5.423-7.706,7.421-9.704
				s2.283-7.706-2.854-7.991c-5.137-0.285-14.841-3.139-18.551-3.71s-4.852-6.564-4.852-7.706c0-1.142-3.996-3.71-8.848-4.566
				c-4.852-0.856-4.567-4.281-10.56-7.135s-9.133-2.854-15.127-2.854s-9.704-1.142-11.416,1.712c-1.712,2.854-3.679,0-6.834,0
				s-6.58,2.283-7.436,1.142c-0.856-1.142-3.996-7.135-3.425-8.848s-1.142-2.854-5.994-2.854c-4.852,0-3.425-5.423-2.283-8.277
				c1.142-2.854-3.996-6.279-5.708-2.854c-1.712,3.425-2.854,4.852-6.564,3.425s-7.135,1.998-7.135-6.564
				c0-8.562,0-15.983,4.566-16.268s8.848,0,11.416,0c2.569,0,1.427-2.569,5.423-2.569c3.996,0,5.708,0.856,6.85,0.856
				c1.142,0,2.854-0.856,3.425,3.139c0.571,3.996,1.712,9.704,3.996,9.418s3.051-4.281,1.811-9.133
				c-1.24-4.852-2.142-8.277,1.734-9.989c3.876-1.712,6.445-2.569,8.728-5.994c2.283-3.425,0.856-6.85,2.569-9.133
				c1.712-2.283,0-4.852,5.994-5.994c5.994-1.142,5.137-2.569,6.85-4.566c1.712-1.998,7.421-4.567,9.133-4.281
				c1.712,0.285,8.277,0.285,6.85-1.427s-2.854-6.564-4.566-7.991s-4.281-3.996-0.285-3.996c3.996,0,5.994,0.571,9.704,0.571
				s9.418-0.285,7.706-5.137c-1.712-4.852-4.566-3.71-7.135-9.704c-2.569-5.994-2.569-14.556-4.567-12.843
				c-1.998,1.712-3.139,5.708-5.708,4.281c-2.569-1.427-1.142-5.708-3.139-7.135s-4.566-3.425-7.135-3.71
				c-2.569-0.285-4.852-0.571-5.994,3.71c-1.142,4.281,0.285,5.423,0,9.418s-0.856,2.854-3.996,4.281
				c-3.139,1.427-3.139,4.281-3.139,4.281s0.571,6.279-1.712,6.279s-5.137,0.285-4.566-3.71c0.571-3.996,3.425-5.708,0.571-6.85
				s-11.131-4.852-13.699-6.85c-2.569-1.998-5.708-6.279-2.283-9.133c3.425-2.854,8.188-4.852,8.09-6.564
				c-0.098-1.712,4.468-1.427,6.751-3.425s3.996-5.708,6.85-5.708s3.425,1.142,5.994,0.571c2.569-0.571,6.279-4.281,1.998-4.852
				s-10.275-1.998-13.7-0.285c-3.425,1.712-6.85-1.142-11.702-1.712c-4.852-0.571-10.275-1.427-11.987-0.856
				c-1.712,0.571-8.848,1.998-10.275-1.998s-4.567-3.139-6.564-3.71c-1.998-0.571-8.562-2.854-11.131-1.712
				C125.967,40.712,121.972,41.283,121.972,41.283z"/>
			<path fill="#67A3AB" d="M232.424,46.991c0,0-0.856,4.281,1.427,7.421s2.854,1.427,1.998,5.994s-0.571,7.421,2.283,11.987
				c2.854,4.567,1.998,7.991,6.279,8.848c4.281,0.856,3.425,0.285,4.566-3.139c1.142-3.425,2.677-7.135,4.763-7.421
				c2.087-0.285,2.943-1.142,6.368-1.998C263.533,67.826,244.126,49.845,232.424,46.991z"/>
			<path fill="#67A3AB" d="M299.494,142.317c0,0,1.712,15.412,0,25.401c-1.712,9.989-5.423,27.399-5.423,27.399
				s-5.137,5.708-6.85,1.142c-1.712-4.567-7.706-11.131-6.279-12.843s1.998-6.564,1.998-9.989s0.571-10.608,3.139-12.867
				c2.569-2.259,3.968-3.401,4.41-6.255c0.442-2.854-0.414-6.494,2.44-7.528S299.494,142.317,299.494,142.317z"/>
		</g>
		<path fill="#231F20" d="M209.352,209.839c-11.322,0.683-22.961,1.035-34.787,1.035c-45.81,0-88.867-5.248-121.237-14.78
			c-31.556-9.29-49.655-22.002-49.655-34.874c0-11.357,14.098-22.587,39.09-31.456c0.161-0.726,0.329-1.449,0.502-2.169
			c-26.832,9.288-41.467,21.076-41.467,33.625c0,13.966,18.112,26.989,51,36.673c32.538,9.58,75.783,14.856,121.767,14.856
			c11.823,0,23.462-0.351,34.787-1.032V209.839z"/>
		<g>
			<path fill="#ED3325" d="M232.784,225.512c0,1.15-0.932,2.082-2.082,2.082h-19.263c-1.15,0-2.082-0.932-2.082-2.082v-36.84
				c0-1.15,0.932-2.082,2.082-2.082h19.263c1.15,0,2.082,0.932,2.082,2.082V225.512z"/>
			<rect x="212.22" y="190.885" fill="#FFFFFF" width="17.961" height="28.119"/>
		</g>
		<path fill="#231F20" d="M264.443,57.164c0.173,0.721,0.341,1.444,0.502,2.169c24.992,8.868,39.09,20.098,39.09,31.456
			c0,12.872-18.099,25.583-49.655,34.874c-26.371,7.764-59.834,12.686-96.1,14.244v1.876c36.449-1.561,70.099-6.51,96.63-14.321
			c32.888-9.683,51-22.707,51-36.673C305.91,78.239,291.275,66.452,264.443,57.164z"/>
		<g>
			<path fill="#ED3325" d="M158.28,154.341c0,2.071-1.679,3.75-3.75,3.75h-41.248c-2.071,0-3.75-1.679-3.75-3.75v-26.249
				c0-2.071,1.679-3.75,3.75-3.75h41.248c2.071,0,3.75,1.679,3.75,3.75V154.341z"/>
			<rect x="114.688" y="129.499" fill="#FFFFFF" width="38.904" height="21.796"/>
			<rect x="123.594" y="155.982" fill="#ED3325" width="20.39" height="7.734"/>
			<rect x="121.954" y="163.716" fill="#ED3325" width="23.905" height="3.867"/>
		</g>
		<path fill="#231F20" d="M101.095,238.376c-19.274-2.205-36.954-5.586-52.01-10.019c-27.81-8.187-43.76-19.39-43.76-30.733
			c0-10.009,12.424-19.906,34.449-27.721c0.142-0.639,0.29-1.277,0.442-1.912c-23.646,8.185-36.544,18.574-36.544,29.633
			c0,12.308,15.962,23.785,44.945,32.319c15.192,4.473,33.033,7.88,52.477,10.096V238.376z"/>
		<g>
			<path fill="#ED3325" d="M133.215,256.911c0,1.382-1.465,2.502-3.272,2.502h-25.355c-1.807,0-3.272-1.12-3.272-2.502v-36.034
				c0-1.382,1.465-2.502,3.272-2.502h25.355c1.807,0,3.272,1.12,3.272,2.502V256.911z"/>
			<rect x="105.695" y="223.449" fill="#FFFFFF" width="23.142" height="27.207"/>
		</g>
		<path fill="#4D7477" d="M107.135,56.517c-3.275-10.07-12.732-17.352-23.894-17.352c-9.605,0-17.948,5.391-22.176,13.311
			c-8.866,0.635-15.862,8.023-15.862,17.05c0,9.444,7.656,17.1,17.1,17.1c2.47,0,4.815-0.528,6.936-1.47
			c4.001,2.691,8.818,4.262,14.003,4.262c5.529,0,10.638-1.79,14.787-4.816c2.221,1.285,4.797,2.025,7.548,2.025
			c8.337,0,15.095-6.758,15.095-15.095C120.67,63.722,114.738,57.298,107.135,56.517z"/>
		<path fill="#4D7477" d="M274.939,52.768c-3.275-10.07-12.732-17.352-23.894-17.352c-9.605,0-17.948,5.391-22.176,13.311
			c-8.866,0.635-15.862,8.023-15.862,17.05c0,9.444,7.656,17.1,17.1,17.1c2.47,0,4.815-0.528,6.936-1.47
			c4.001,2.691,8.818,4.262,14.003,4.262c5.529,0,10.638-1.79,14.787-4.816c2.221,1.285,4.797,2.025,7.548,2.025
			c8.337,0,15.095-6.758,15.095-15.095C288.474,59.972,282.543,53.548,274.939,52.768z"/>
		<path fill="#4D7477" d="M228.067,24.644c-3.275-10.07-12.732-17.352-23.894-17.352c-9.605,0-17.948,5.391-22.176,13.311
			c-8.866,0.635-15.862,8.023-15.862,17.05c0,9.444,7.656,17.1,17.1,17.1c2.47,0,4.815-0.528,6.936-1.47
			c4.001,2.691,8.818,4.262,14.003,4.262c5.529,0,10.638-1.79,14.787-4.816c2.221,1.285,4.797,2.025,7.548,2.025
			c8.337,0,15.095-6.758,15.095-15.095C241.602,31.849,235.67,25.424,228.067,24.644z"/>
	</g>
</g>
</svg>
