<?xml version="1.0" encoding="utf-8"?>
<!-- Generator: Adobe Illustrator 17.1.0, SVG Export Plug-In . SVG Version: 6.00 Build 0)  -->
<!DOCTYPE svg PUBLIC "-//W3C//DTD SVG 1.1//EN" "http://www.w3.org/Graphics/SVG/1.1/DTD/svg11.dtd">
<svg version="1.1" xmlns="http://www.w3.org/2000/svg" xmlns:xlink="http://www.w3.org/1999/xlink" x="0px" y="0px"
	 viewBox="0 0 150 150" enable-background="new 0 0 150 150" xml:space="preserve">
<g id="Layer_1">
	<circle fill="#67A3AB" cx="75.849" cy="72.918" r="60.5"/>
	<g>
		<g id="Your_Icon">
			<g>
				<path fill="#FFFFFF" d="M103.436,59.762c0-15.211-12.376-27.586-27.587-27.586c-15.212,0-27.588,12.375-27.588,27.586
					c0,8.113,4.763,14.438,9.368,20.557c3.975,5.28,7.74,10.291,8.262,16.09c-0.856,0.295-1.475,1.098-1.475,2.054
					c0,1.206,0.977,2.183,2.182,2.183l18.502-0.003c1.205,0,2.182-0.976,2.182-2.181c0-0.955-0.619-1.759-1.474-2.054
					c0.523-5.799,4.287-10.808,8.261-16.088C98.675,74.201,103.436,67.875,103.436,59.762z M81.436,96.28l-11.173,0.002
					c-0.543-7.154-4.913-12.961-9.148-18.586c-4.367-5.801-8.491-11.279-8.491-17.933c0-12.806,10.42-23.224,23.226-23.224
					s23.224,10.418,23.224,23.224c0,6.654-4.124,12.133-8.489,17.933C86.349,83.321,81.981,89.128,81.436,96.28z"/>
				<path fill="#FFFFFF" d="M80.369,109.511H71.33c-1.205,0-2.181,0.87-2.181,2.074c0,1.205,0.976,2.074,2.181,2.074h9.039
					c1.204,0,2.181-0.869,2.181-2.074C82.55,110.382,81.572,109.511,80.369,109.511z"/>
				<path fill="#FFFFFF" d="M83.91,102.9L83.91,102.9l-16.122,0.003c-1.205,0-2.181,0.976-2.18,2.181
					c0,1.204,0.976,2.181,2.18,2.181l0,0l16.122-0.004c1.203,0,2.18-0.976,2.18-2.183C86.091,103.877,85.114,102.9,83.91,102.9z"/>
			</g>
		</g>
		<path fill="#FFFFFF" d="M84.481,59.479c-0.807-0.864-1.941-1.322-3.279-1.322c-1.27,0-2.361,0.447-3.157,1.294
			c-0.803,0.853-1.173,1.959-1.341,2.875h-1.713c-0.168-0.925-0.538-2.025-1.339-2.875c-0.796-0.846-1.887-1.293-3.156-1.293
			c-1.338,0-2.472,0.457-3.279,1.322c-1.473,1.578-1.357,3.917-1.339,4.178c0.045,0.652,0.587,1.158,1.241,1.158h5.511v20.887h2.489
			l-0.003-20.886h1.463v20.886h2.489l-0.002-20.888h5.513c0.654,0,1.196-0.506,1.241-1.158
			C85.839,63.396,85.954,61.057,84.481,59.479z M68.479,62.327c0.094-0.402,0.262-0.831,0.557-1.149
			c0.334-0.358,0.812-0.531,1.461-0.531c0.586,0,1.011,0.16,1.338,0.504c0.292,0.308,0.482,0.735,0.603,1.176H68.479z
			 M79.258,62.327c0.122-0.436,0.31-0.862,0.6-1.171c0.326-0.348,0.753-0.509,1.343-0.509c0.645,0,1.122,0.172,1.454,0.525
			c0.293,0.309,0.466,0.741,0.565,1.156H79.258z"/>
	</g>
</g>
<g id="Layer_2">
</g>
</svg>
