<?xml version="1.0" encoding="utf-8"?>
<!-- Generator: Adobe Illustrator 16.0.0, SVG Export Plug-In . SVG Version: 6.00 Build 0)  -->
<!DOCTYPE svg PUBLIC "-//W3C//DTD SVG 1.1//EN" "http://www.w3.org/Graphics/SVG/1.1/DTD/svg11.dtd">
<svg version="1.1" id="Layer_1" xmlns="http://www.w3.org/2000/svg" xmlns:xlink="http://www.w3.org/1999/xlink" x="0px" y="0px"
	 width="150px" height="150px" viewBox="0 0 150 150" enable-background="new 0 0 150 150" xml:space="preserve">
<g>
	<g>
		<g>
			<path fill="#77BDC7" d="M75,150c-41.355,0-75-33.645-75-75C0,33.645,33.645,0,75,0c41.354,0,75,33.645,75,75
				C150,116.355,116.354,150,75,150z M75,3.659C35.663,3.659,3.659,35.663,3.659,75c0,39.338,32.004,71.342,71.341,71.342
				c39.336,0,71.342-32.004,71.342-71.342C146.342,35.663,114.336,3.659,75,3.659z"/>
		</g>
		<g>
			<rect x="73.08" y="13.094" fill="#77BDC7" width="3.838" height="22.068"/>
		</g>
		<g>
			<rect x="73.08" y="114.015" fill="#77BDC7" width="3.838" height="22.068"/>
		</g>
		<g>
			<rect x="13.653" y="72.817" fill="#77BDC7" width="22.069" height="3.837"/>
		</g>
		<g>
			<rect x="122.739" y="72.817" fill="#77BDC7" width="13.903" height="3.837"/>
		</g>
		<g>
			<rect x="13.653" y="72.817" fill="#77BDC7" width="22.069" height="3.837"/>
		</g>
		<g>
			
				<rect x="101.179" y="105.711" transform="matrix(0.8325 -0.5541 0.5541 0.8325 -47.4123 76.6787)" fill="#77BDC7" width="3.837" height="22.069"/>
		</g>
		<g>
			
				<rect x="45.274" y="21.692" transform="matrix(0.8326 -0.5538 0.5538 0.8326 -10.2256 31.6139)" fill="#77BDC7" width="3.839" height="22.068"/>
		</g>
		<g>
			
				<rect x="116.566" y="88.372" transform="matrix(0.4891 -0.8723 0.8723 0.4891 -26.1665 154.14)" fill="#77BDC7" width="3.838" height="22.066"/>
		</g>
		<g>
			
				<rect x="28.523" y="39.04" transform="matrix(0.4891 -0.8723 0.8723 0.4891 -28.123 52.1382)" fill="#77BDC7" width="3.838" height="22.069"/>
		</g>
		<g>
			
				<rect x="43.913" y="105.717" transform="matrix(-0.8325 -0.554 0.554 -0.8325 19.3079 239.34)" fill="#77BDC7" width="3.838" height="22.069"/>
		</g>
		<g>
			
				<rect x="99.814" y="21.695" transform="matrix(-0.8327 -0.5537 0.5537 -0.8327 168.3221 116.3159)" fill="#77BDC7" width="3.838" height="22.068"/>
		</g>
		<g>
			
				<rect x="28.521" y="88.37" transform="matrix(-0.4887 -0.8724 0.8724 -0.4887 -41.405 174.5435)" fill="#77BDC7" width="3.839" height="22.068"/>
		</g>
		<g>
			
				<rect x="116.557" y="39.038" transform="matrix(-0.4891 -0.8723 0.8723 -0.4891 132.741 177.9022)" fill="#77BDC7" width="3.838" height="22.069"/>
		</g>
	</g>
	<g>
		<g>
			<path fill="#77BDC7" d="M79.567,88.059v4.588h-4.816v-4.682c-3.983-0.51-7.876-2.087-10.935-4.4l3.613-5.283
				c2.506,1.903,4.821,3.198,7.551,3.754v-7.367c-6.668-1.806-9.958-4.397-9.958-9.863c0-5.146,3.888-8.525,9.728-9.128v-2.686
				h4.816v2.779c3.288,0.461,6.114,1.667,8.614,3.426l-3.104,5.42c-1.854-1.248-3.799-2.221-5.741-2.729v6.993
				c7.038,1.901,10.052,4.819,10.052,10.006C89.389,84.026,85.452,87.411,79.567,88.059z M74.98,61.466
				c-2.221,0.324-3.195,1.436-3.195,2.919c0,1.438,0.649,2.411,3.195,3.334V61.466z M79.337,75.782v6.486
				c2.175-0.324,3.289-1.346,3.289-3.015C82.626,77.682,81.838,76.707,79.337,75.782z"/>
		</g>
	</g>
	<g>
		<polygon fill="#77BDC7" points="139.082,74.067 127.622,62.609 127.622,70.378 95.815,70.378 95.815,77.758 127.622,77.758 
			127.622,85.525 		"/>
	</g>
	<g>
		<polygon fill="#77BDC7" points="75,10.157 63.542,21.616 71.31,21.616 71.31,46.107 78.688,46.107 78.688,21.616 86.457,21.616 		
			"/>
	</g>
</g>
</svg>
