<?xml version="1.0" encoding="utf-8"?>
<!-- Generator: Adobe Illustrator 16.0.0, SVG Export Plug-In . SVG Version: 6.00 Build 0)  -->
<!DOCTYPE svg PUBLIC "-//W3C//DTD SVG 1.1//EN" "http://www.w3.org/Graphics/SVG/1.1/DTD/svg11.dtd">
<svg version="1.1" id="Layer_1" xmlns="http://www.w3.org/2000/svg" xmlns:xlink="http://www.w3.org/1999/xlink" x="0px" y="0px"
	 width="150px" height="150px" viewBox="0 0 150 150" enable-background="new 0 0 150 150" xml:space="preserve">
<g>
	<g>
		<path fill="#77BDC7" d="M142.735,139.401c0,5.86-4.748,10.613-10.608,10.613H86.819c-5.86,0-10.608-4.753-10.608-10.613V62.805
			c0-5.859,4.747-10.608,10.608-10.608h45.308c5.859,0,10.608,4.749,10.608,10.608V139.401z"/>
	</g>
	<g>
		<g>
			<path fill="#FFFFFF" d="M110.515,94.668c-21.492,0-18.399,15.093-18.399,22.477h18.399h18.401
				C128.916,109.761,132.009,94.668,110.515,94.668z"/>
		</g>
		<g>
			<path fill="#FFFFFF" d="M120.679,82.155c0-5.609-4.552-10.157-10.164-10.157c-5.61,0-10.162,4.547-10.162,10.157
				c0,5.619,4.552,10.168,10.162,10.168C116.127,92.323,120.679,87.774,120.679,82.155z"/>
		</g>
	</g>
	<g>
		<path fill="#77BDC7" d="M31.784,83.312c-13.933,0-23.434-6.311-26.065-17.312C2.184,51.227,12.01,33.264,28.086,25.106
			c6.453-3.275,14.405-4.936,23.634-4.936c3.454,0,7.039,0.241,10.68,0.716C63.942,13.425,69.443,0,89.022,0
			c7.11,0,12.689,2.091,16.582,6.216c6.188,6.556,5.729,15.793,5.706,16.183l0.004,29.798h-3.684
			c0-10.967-19.102-23.158-42.122-27.114c-0.063,0.754-0.095,1.5-0.095,2.21c0,0.512,0.014,1.18,0.031,1.983
			c0.188,8.936,0.686,32.669-11.958,45.582C47.995,80.467,40.692,83.312,31.784,83.312z M51.72,23.854
			c-8.523,0-16.119,1.568-21.967,4.536C17.211,34.754,5.826,50.616,9.3,65.143c2.234,9.341,10.219,14.485,22.483,14.485
			c7.881,0,14.298-2.473,19.072-7.347C62.416,60.475,61.94,37.865,61.762,29.354c-0.017-0.834-0.032-1.529-0.032-2.061
			c0-0.901,0.043-1.826,0.129-2.762C58.398,24.081,54.996,23.854,51.72,23.854z M66.043,21.438
			c16.802,2.902,34.192,10.836,41.588,20.787V22.292c0.007-0.183,0.373-8.192-4.727-13.571c-3.169-3.343-7.84-5.038-13.882-5.038
			C72.652,3.684,67.582,14.094,66.043,21.438z"/>
	</g>
</g>
</svg>
