<?xml version="1.0" encoding="utf-8"?>
<!-- Generator: Adobe Illustrator 16.0.0, SVG Export Plug-In . SVG Version: 6.00 Build 0)  -->
<!DOCTYPE svg PUBLIC "-//W3C//DTD SVG 1.1//EN" "http://www.w3.org/Graphics/SVG/1.1/DTD/svg11.dtd">
<svg version="1.1" id="Layer_1" xmlns="http://www.w3.org/2000/svg" xmlns:xlink="http://www.w3.org/1999/xlink" x="0px" y="0px"
	 width="150px" height="150px" viewBox="0 0 150 150" enable-background="new 0 0 150 150" xml:space="preserve">
<g>
	<g>
		<g>
			<path fill="#77BDC7" d="M13.229,56.166C13.228,56.166,13.228,56.166,13.229,56.166c-1.712,0-3.276-0.621-4.401-1.747
				l-4.424-4.423c-2.266-2.265-2.271-6.08-0.217-9.1l-2.211-2.209c-2.633-2.635-2.633-6.921-0.001-9.556L29.13,1.979
				C30.406,0.703,32.103,0,33.907,0c1.804,0,3.501,0.702,4.777,1.979l2.209,2.209c1.438-0.983,3.085-1.527,4.703-1.527
				c1.711,0,3.273,0.62,4.398,1.746l4.423,4.423c1.311,1.312,1.93,3.223,1.698,5.245c-0.218,1.903-1.149,3.761-2.621,5.23
				L19.303,53.497C17.609,55.193,15.394,56.166,13.229,56.166z M33.907,3.466c-0.879,0-1.706,0.342-2.327,0.963L4.425,31.581
				c-1.282,1.283-1.282,3.371,0,4.655l4.538,4.535l-1.211,1.226c-1.738,1.757-2.149,4.298-0.898,5.549l4.424,4.423
				c0.604,0.604,1.395,0.731,1.951,0.731c0,0,0,0,0,0c1.235,0,2.589-0.618,3.624-1.653l34.194-34.193
				c0.907-0.906,1.5-2.062,1.627-3.174c0.112-0.979-0.138-1.831-0.706-2.398l-4.423-4.424c-0.604-0.604-1.393-0.73-1.948-0.73
				c-1.224,0-2.569,0.609-3.601,1.628l-1.225,1.212L36.234,4.43C35.613,3.808,34.786,3.466,33.907,3.466z"/>
		</g>
		<g>
			<path fill="#77BDC7" d="M114.912,148.822C114.911,148.822,114.912,148.822,114.912,148.822c-1.805,0-3.502-0.703-4.777-1.979
				l-2.209-2.21c-1.438,0.983-3.086,1.526-4.704,1.526c-1.71,0-3.273-0.619-4.399-1.746l-4.422-4.422
				c-1.312-1.312-1.93-3.223-1.697-5.245c0.219-1.903,1.148-3.762,2.619-5.231l34.193-34.193c1.695-1.695,3.909-2.668,6.074-2.668
				c1.711,0,3.274,0.62,4.4,1.747l4.423,4.423c2.266,2.266,2.272,6.08,0.218,9.1l2.211,2.212c2.634,2.635,2.634,6.921,0,9.555
				l-27.153,27.152C118.412,148.119,116.716,148.822,114.912,148.822z M108.05,139.856l4.534,4.536c1.24,1.239,3.409,1.242,4.654,0
				l27.153-27.153c1.281-1.282,1.281-3.369-0.001-4.654l-4.536-4.536l1.211-1.226c1.737-1.757,2.148-4.298,0.897-5.549l-4.423-4.422
				c-0.604-0.605-1.395-0.732-1.95-0.732c-1.234,0-2.59,0.618-3.624,1.652l-34.193,34.193c-0.905,0.906-1.499,2.064-1.626,3.177
				c-0.113,0.979,0.137,1.831,0.705,2.398l4.421,4.423c0.604,0.604,1.395,0.731,1.949,0.731c1.225,0,2.57-0.608,3.602-1.629
				L108.05,139.856z"/>
		</g>
		<g>
			
				<rect x="24.958" y="68.627" transform="matrix(-0.7071 -0.7071 0.7071 -0.7071 74.2486 179.2504)" fill="#77BDC7" width="98.581" height="11.241"/>
		</g>
		<g>
			
				<rect x="123.436" y="100.947" transform="matrix(0.707 0.7072 -0.7072 0.707 125.2054 -51.8458)" fill="#77BDC7" width="3.466" height="48.448"/>
		</g>
		<g>
			
				<rect x="21.969" y="-0.521" transform="matrix(0.7071 0.7071 -0.7071 0.7071 23.7035 -9.817)" fill="#77BDC7" width="3.465" height="48.45"/>
		</g>
	</g>
	<g>
		<g>
			<path fill="#77BDC7" d="M33.907,148.823c-1.805,0-3.501-0.703-4.777-1.979L1.977,119.691c-2.633-2.635-2.633-6.921,0-9.556
				l2.211-2.21c-2.055-3.021-2.048-6.835,0.217-9.1l4.424-4.423c1.126-1.128,2.69-1.748,4.401-1.748c2.166,0,4.38,0.973,6.074,2.668
				l34.192,34.193c1.471,1.469,2.401,3.327,2.62,5.23c0.232,2.022-0.386,3.935-1.697,5.246l-4.424,4.423
				c-1.126,1.126-2.688,1.746-4.398,1.746c0,0,0,0,0,0c-1.617,0-3.266-0.544-4.703-1.528l-2.208,2.21
				C37.408,148.12,35.711,148.823,33.907,148.823z M13.229,96.121c-0.556,0-1.346,0.128-1.951,0.732l-4.423,4.424
				c-1.25,1.25-0.839,3.79,0.898,5.548l1.211,1.227l-4.536,4.534c-1.282,1.284-1.282,3.372,0,4.654l27.152,27.153
				c1.243,1.243,3.411,1.241,4.654,0l4.537-4.537l1.225,1.212c1.031,1.019,2.376,1.628,3.601,1.628l0,0
				c0.556,0,1.344-0.127,1.948-0.73l4.424-4.424c0.567-0.567,0.817-1.419,0.705-2.399c-0.128-1.112-0.721-2.27-1.626-3.176
				L16.853,97.773C15.818,96.739,14.464,96.121,13.229,96.121z"/>
		</g>
		<g>
			<path fill="#77BDC7" d="M135.59,56.167L135.59,56.167c-2.166,0-4.381-0.972-6.077-2.668L95.32,19.305
				c-1.47-1.469-2.401-3.327-2.619-5.23c-0.232-2.022,0.388-3.934,1.698-5.245l4.423-4.422c1.126-1.126,2.688-1.747,4.398-1.747
				c1.618,0,3.265,0.544,4.702,1.527l2.21-2.21C111.41,0.702,113.107,0,114.911,0c1.805,0,3.501,0.702,4.776,1.978l27.154,27.154
				c2.632,2.634,2.632,6.92,0.001,9.555l-2.212,2.211c2.055,3.02,2.048,6.835-0.219,9.101l-4.423,4.421
				C138.863,55.547,137.301,56.167,135.59,56.167z M103.221,6.127c-0.555,0-1.344,0.127-1.948,0.731l-4.423,4.422
				c-0.567,0.567-0.817,1.419-0.705,2.399c0.128,1.112,0.72,2.269,1.626,3.174l34.193,34.194c1.035,1.035,2.391,1.653,3.626,1.653
				l0,0c0.555,0,1.345-0.127,1.949-0.731l4.423-4.422c1.251-1.251,0.84-3.792-0.896-5.55l-1.211-1.226l4.537-4.536
				c1.281-1.283,1.281-3.371-0.001-4.654L117.237,4.429c-1.243-1.242-3.409-1.242-4.655,0.001l-4.536,4.537l-1.225-1.212
				C105.791,6.736,104.445,6.127,103.221,6.127z"/>
		</g>
		<g>
			
				<rect x="24.955" y="68.952" transform="matrix(-0.7071 0.7071 -0.7071 -0.7071 179.4773 74.8039)" fill="#77BDC7" width="98.582" height="11.242"/>
		</g>
		<g>
			
				<rect x="100.944" y="21.919" transform="matrix(0.7071 0.7071 -0.7071 0.7071 53.3861 -81.5805)" fill="#77BDC7" width="48.448" height="3.465"/>
		</g>
		<g>
			
				<rect x="-0.523" y="123.387" transform="matrix(0.7071 0.7071 -0.7071 0.7071 95.414 19.8863)" fill="#77BDC7" width="48.45" height="3.465"/>
		</g>
	</g>
</g>
</svg>
