<?xml version="1.0" encoding="utf-8"?>
<!-- Generator: Adobe Illustrator 16.2.1, SVG Export Plug-In . SVG Version: 6.00 Build 0)  -->
<!DOCTYPE svg PUBLIC "-//W3C//DTD SVG 1.1//EN" "http://www.w3.org/Graphics/SVG/1.1/DTD/svg11.dtd">
<svg version="1.1" id="Layer_1" xmlns="http://www.w3.org/2000/svg" xmlns:xlink="http://www.w3.org/1999/xlink" x="0px" y="0px"
	 width="150px" height="150px" viewBox="0 0 150 150" enable-background="new 0 0 150 150" xml:space="preserve">
<path fill="none" stroke="#77BDC7" stroke-width="3" stroke-miterlimit="10" d="M43.553,85.341
	c4.233-22.438,6.782-38.574,6.416-48.794c-0.36-10.22-10.904-11.027-22.355-11.027c-11.45,0-21.996,0.808-22.356,11.027
	c-0.365,10.22,2.185,26.356,6.417,48.794c4.238,22.438,1.37,34.458-2.799,45.071c-4.17,10.621,1.73,11.119,1.73,11.119
	s8.983,0.784,17.008,0.784c8.025,0,17.009-0.784,17.009-0.784s5.898-0.498,1.729-11.119
	C42.182,119.799,39.313,107.778,43.553,85.341z"/>
<path fill="#77BDC7" d="M6.711,49.399c0,0,10.547,4.155,21.554,4.155s21.738-4.155,21.738-4.155s-8.452,37.593-8.452,52.253
	c0,14.659,4.801,28.76,4.801,28.76s-5.784,2.771-17.871,2.771c-12.088,0-19.605-2.771-19.605-2.771s4.88-6.78,4.88-24.255
	C13.755,88.682,6.711,49.399,6.711,49.399z"/>
<circle fill="#77BDC7" cx="30.854" cy="76.164" r="6.044"/>
<g>
	<path fill="#77BDC7" d="M102.771,107.471c-13.671,0-26.966-2.118-38.448-6.127l-0.853-0.299l-0.022-1.165
		c0-16.275,15.904-29.518,35.453-29.518s35.453,13.242,35.453,29.518c0,0.9-0.053,1.808-0.161,2.771l-0.1,0.887l-0.865,0.223
		C123.662,106.223,113.416,107.471,102.771,107.471z M66.048,99.197c11.011,3.72,23.686,5.684,36.723,5.684
		c10.101,0,19.83-1.146,28.932-3.407c0.041-0.542,0.062-1.07,0.062-1.594c0-14.848-14.742-26.927-32.863-26.927
		C81.059,72.953,66.491,84.663,66.048,99.197z"/>
</g>
<g>
	<path fill="#77BDC7" d="M98.9,144.29c-19.881,0-35.453-8.642-35.453-19.673c0-0.629,0.056-1.26,0.172-1.93l0.156-0.906l0.906-0.151
		c9.531-1.598,19.741-2.407,30.349-2.407c13.622,0,26.868,1.375,38.308,3.975l0.982,0.224l0.033,1.196
		C134.354,135.648,118.781,144.29,98.9,144.29z M66.059,124.027c-0.014,0.2-0.021,0.395-0.021,0.59
		c0,9.42,14.742,17.083,32.863,17.083c17.557,0,31.942-7.194,32.82-16.209c-11.013-2.408-23.671-3.678-36.69-3.678
		C84.919,121.813,75.178,122.559,66.059,124.027z"/>
</g>
<g>
	<path fill="#77BDC7" d="M106.349,119.395c-3.725,0.002-8.183-1.001-12.118-1.887c-1.24-0.278-2.428-0.546-3.517-0.764
		c-1.597-0.318-2.602-0.455-3.362-0.455c-0.832,0-1.43,0.159-2.514,0.449c-0.69,0.183-1.529,0.406-2.664,0.649
		c-1.775,0.381-3.95,0.591-6.129,0.591c-3.139,0-8.896-0.451-12.181-3.477c-3.217-2.965-3.517-3.068-5.845-3.883
		c-0.345-0.12-0.728-0.253-1.164-0.411c-2.858-1.032-5.225-3.407-5.752-5.773c-0.321-1.44,0.059-2.789,1.067-3.798
		c1.753-1.755,4.822-2.123,7.088-2.123c0.828,0,1.452,0.053,1.661,0.071h4.064l0.225,0.087c0.161,0.062,16.261,6.209,33.691,6.209
		c17.546,0,33.557-3.602,33.718-3.638l0.356-0.082l0.347,0.118c2.731,0.927,9.115,3.42,9.404,6.537
		c0.076,0.816-0.193,1.993-1.909,2.958c-2.22,1.25-4.132,1.7-5.551,1.954c-0.723,0.129-1.434,0.223-2.146,0.317
		c-2.055,0.271-3.995,0.526-6.285,1.663c-5.698,2.83-14.844,4.352-19.269,4.648C107.172,119.384,106.765,119.395,106.349,119.395z
		 M87.352,113.698c0.954,0,2.074,0.147,3.871,0.506c1.107,0.222,2.314,0.493,3.577,0.777c4.198,0.943,9,2.027,12.595,1.79
		c4.537-0.302,13.213-1.861,18.289-4.382c2.676-1.329,4.924-1.625,7.098-1.912c0.674-0.089,1.346-0.177,2.028-0.299
		c1.293-0.231,2.866-0.609,4.737-1.662c0.52-0.292,0.603-0.486,0.604-0.487c-0.083-0.861-3.593-2.867-7.323-4.181
		c-2.517,0.542-17.575,3.622-33.927,3.622c-16.993,0-32.271-5.499-34.396-6.296l-3.786-0.007c-0.029-0.003-0.617-0.063-1.46-0.063
		c-2.474,0-4.39,0.497-5.257,1.363c-0.24,0.24-0.538,0.646-0.37,1.402c0.329,1.477,2.131,3.19,4.104,3.902l1.137,0.401
		c2.688,0.94,3.234,1.188,6.747,4.423c1.925,1.773,5.726,2.792,10.425,2.792c1.973,0,4.007-0.195,5.586-0.533
		c1.082-0.232,1.88-0.445,2.539-0.621C85.337,113.924,86.18,113.698,87.352,113.698z"/>
</g>
<g>
	<path fill="#77BDC7" d="M133.059,125.188c-4.298,2.781-13.275,5.828-29.787,5.828c-16.513,0-42.091-3.886-45.005-7.771
		c-2.913-3.886,0.266-14.246,2.033-13.141c1.767,1.105,7.044,6.011,11.572,6.292c4.527,0.28,14.77-1.774,17.895-1.145
		s14.858,4.389,24.209,1.957c9.352-2.431,19.083-5.462,19.083-5.462S144.066,118.064,133.059,125.188z"/>
</g>
<ellipse transform="matrix(0.7611 -0.6486 0.6486 0.7611 -27.1526 94.5743)" fill="#77BDC7" cx="114.821" cy="84.15" rx="1.619" ry="2.807"/>
<ellipse transform="matrix(-0.8064 -0.5913 0.5913 -0.8064 105.604 202.8657)" fill="#77BDC7" cx="86.005" cy="84.148" rx="1.618" ry="2.806"/>
<ellipse transform="matrix(-0.9989 -0.0477 0.0477 -0.9989 197.0543 167.3904)" fill="#77BDC7" cx="100.523" cy="81.346" rx="1.619" ry="2.808"/>
</svg>
