<?xml version="1.0" encoding="utf-8"?>
<!-- Generator: Adobe Illustrator 16.0.0, SVG Export Plug-In . SVG Version: 6.00 Build 0)  -->
<!DOCTYPE svg PUBLIC "-//W3C//DTD SVG 1.1//EN" "http://www.w3.org/Graphics/SVG/1.1/DTD/svg11.dtd">
<svg version="1.1" id="Layer_1" xmlns="http://www.w3.org/2000/svg" xmlns:xlink="http://www.w3.org/1999/xlink" x="0px" y="0px"
	 width="150px" height="150px" viewBox="0 0 150 150" enable-background="new 0 0 150 150" xml:space="preserve">
<g>
	<g>
		<g>
			
				<rect x="119.201" y="80.354" transform="matrix(0.7407 0.6718 -0.6718 0.7407 87.3764 -59.2121)" fill="#77BDC7" width="2.407" height="6.491"/>
		</g>
		<g>
			
				<rect x="123.486" y="78.232" transform="matrix(0.7903 0.6127 -0.6127 0.7903 80.55 -57.7809)" fill="#77BDC7" width="2.403" height="21.108"/>
		</g>
		<g>
			
				<rect x="21.39" y="23.314" transform="matrix(0.7411 0.6714 -0.6714 0.7411 25.4105 -7.6259)" fill="#77BDC7" width="2.405" height="11.638"/>
		</g>
		<g>
			
				<rect x="28.843" y="19.803" transform="matrix(0.7907 0.6122 -0.6122 0.7907 29.9964 -10.2888)" fill="#77BDC7" width="2.405" height="37.843"/>
		</g>
		<g>
			<path fill="#77BDC7" d="M142.709,69.6l-30.887-0.045c-3.064-0.007-5.557,2.475-5.56,5.541l-0.079,53.094
				c-0.005,3.07,2.479,5.558,5.545,5.562l30.885,0.047c3.064,0.005,5.557-2.479,5.56-5.546l0.079-53.093
				C148.255,72.093,145.774,69.602,142.709,69.6z M135.863,128.396h-17.287v-3.156h17.287V128.396z M141.938,120.263l-29.498-0.042
				l0.068-43.031l29.495,0.041L141.938,120.263z"/>
		</g>
	</g>
	<g>
		<path fill="#77BDC7" d="M100.636,82.003H10.701V17.271h101.693l0.005,47.093h6.191V18.076c0-3.758-2.437-6.484-6.196-6.484H11.84
			c-3.758,0-6.817,2.726-6.817,6.484v71.698L0,103.185h0.427C0.159,104.005,0,104.874,0,105.783v2.933
			c0,4.648,3.769,8.419,8.418,8.419h92.218V82.003z M40.508,94.527h43.894l3.607,8.718H36.9L40.508,94.527z"/>
	</g>
</g>
</svg>
