<?xml version="1.0" encoding="utf-8"?>
<!-- Generator: Adobe Illustrator 16.0.0, SVG Export Plug-In . SVG Version: 6.00 Build 0)  -->
<!DOCTYPE svg PUBLIC "-//W3C//DTD SVG 1.1//EN" "http://www.w3.org/Graphics/SVG/1.1/DTD/svg11.dtd">
<svg version="1.1" id="Layer_1" xmlns="http://www.w3.org/2000/svg" xmlns:xlink="http://www.w3.org/1999/xlink" x="0px" y="0px"
	 width="150px" height="150px" viewBox="0 0 150 150" enable-background="new 0 0 150 150" xml:space="preserve">
<g>
	<g>
		<path fill="#77BDC7" d="M74.562,149.125C33.448,149.125,0,115.677,0,74.562C0,33.448,33.448,0,74.562,0
			s74.562,33.448,74.562,74.562C149.124,115.677,115.676,149.125,74.562,149.125z M74.562,5.228
			c-38.231,0-69.334,31.103-69.334,69.334s31.103,69.335,69.334,69.335s69.334-31.104,69.334-69.335S112.793,5.228,74.562,5.228z"/>
	</g>
	<g>
		<polygon fill="#77BDC7" points="109.589,61.78 87.345,61.78 87.345,39.535 61.78,39.535 61.78,61.78 39.535,61.78 39.536,87.347 
			61.78,87.347 61.78,109.589 87.345,109.589 87.345,87.347 109.589,87.347 		"/>
	</g>
</g>
</svg>
