<?xml version="1.0" encoding="utf-8"?>
<!-- Generator: Adobe Illustrator 17.0.0, SVG Export Plug-In . SVG Version: 6.00 Build 0)  -->
<!DOCTYPE svg PUBLIC "-//W3C//DTD SVG 1.1//EN" "http://www.w3.org/Graphics/SVG/1.1/DTD/svg11.dtd">
<svg version="1.1" id="Layer_1" xmlns="http://www.w3.org/2000/svg" xmlns:xlink="http://www.w3.org/1999/xlink" x="0px" y="0px"
	 width="126.107px" height="126.107px" viewBox="0 0 126.107 126.107" enable-background="new 0 0 126.107 126.107"
	 xml:space="preserve">
<rect x="18.467" y="18.469" transform="matrix(-0.7071 0.7071 -0.7071 -0.7071 152.2231 63.0545)" fill="#999999" width="89.17" height="89.17"/>
<g>
	<path d="M75.106,50.761c0-5.885-4.516-10.56-11.771-10.56c-5.965,0-10.56,2.821-14.67,7.577l-4.111-3.95
		c4.595-5.562,10.318-9.351,18.943-9.351c10.882,0,18.057,6.771,18.057,16.041c0,10.157-7.577,15.156-16.766,16.444l-0.809,8.707
		H59.87l-1.21-13.06l0.404-0.402C69.544,61.967,75.106,57.613,75.106,50.761z M58.176,91.631v-8.463h7.417v8.463H58.176z"/>
</g>
</svg>
