<?xml version="1.0" encoding="utf-8"?>
<!-- Generator: Adobe Illustrator 16.0.0, SVG Export Plug-In . SVG Version: 6.00 Build 0)  -->
<!DOCTYPE svg PUBLIC "-//W3C//DTD SVG 1.1 Tiny//EN" "http://www.w3.org/Graphics/SVG/1.1/DTD/svg11-tiny.dtd">
<svg version="1.1" baseProfile="tiny" id="Layer_1" xmlns="http://www.w3.org/2000/svg" xmlns:xlink="http://www.w3.org/1999/xlink"
	 x="0px" y="0px" width="116.668px" height="107.414px" viewBox="0 0 116.668 107.414" xml:space="preserve">
<g>
	<rect x="46.001" y="2" fill="#FFFFFF" width="70.667" height="78"/>
	<path fill="#231F20" d="M118.668,82H44.001V0h74.667V82z M48.001,78h66.667V4H48.001V78z"/>
</g>
<g>
	<rect y="29.414" fill="#231F20" width="70.667" height="78"/>
</g>
<g>
	<rect x="12.334" y="41" fill="#FFFFFF" width="7.999" height="8.829"/>
</g>
<g>
	<rect x="12.334" y="56" fill="#FFFFFF" width="7.999" height="8.829"/>
</g>
<g>
	<rect x="12.334" y="71" fill="#FFFFFF" width="7.999" height="8.829"/>
</g>
<g>
	<rect x="12.334" y="86" fill="#FFFFFF" width="7.999" height="8.829"/>
</g>
<g>
	<rect x="52.334" y="41" fill="#FFFFFF" width="7.999" height="8.829"/>
</g>
<g>
	<rect x="52.334" y="56" fill="#FFFFFF" width="7.999" height="8.829"/>
</g>
<g>
	<rect x="52.334" y="71" fill="#FFFFFF" width="7.999" height="8.829"/>
</g>
<g>
	<rect x="52.334" y="86" fill="#FFFFFF" width="7.999" height="8.829"/>
</g>
<g>
	<rect x="56.333" y="11.414" fill="#231F20" width="50.667" height="11.667"/>
</g>
<g>
	<rect x="77.667" y="29.414" fill="#231F20" width="29.333" height="11.667"/>
</g>
<g>
	<rect x="77.667" y="47.414" fill="#231F20" width="29.333" height="11.667"/>
</g>
</svg>
