<?xml version="1.0" encoding="utf-8"?>
<!-- Generator: Adobe Illustrator 17.1.0, SVG Export Plug-In . SVG Version: 6.00 Build 0)  -->
<!DOCTYPE svg PUBLIC "-//W3C//DTD SVG 1.1//EN" "http://www.w3.org/Graphics/SVG/1.1/DTD/svg11.dtd">
<svg version="1.1" xmlns="http://www.w3.org/2000/svg" xmlns:xlink="http://www.w3.org/1999/xlink" x="0px" y="0px"
	 viewBox="0 0 153.994 150" enable-background="new 0 0 153.994 150" xml:space="preserve">
<g id="Layer_1">
	<g>
		<path fill="none" stroke="#929497" stroke-width="3" stroke-miterlimit="10" d="M98.856,35.765
			c16.952,0,30.694,11.884,30.694,26.545c0,6.801-2.961,13.002-7.824,17.699l0.002-0.001c-3.903,4.713,6.096,8.847,6.096,8.847
			s-28.62,0-28.969,0c-16.952,0-30.694-11.884-30.694-26.545C68.162,47.649,81.904,35.765,98.856,35.765z"/>
		<g>
			<rect x="37.812" y="85.584" fill="#ED3325" width="10.006" height="10.006"/>
			<rect x="50.518" y="85.584" fill="#ED3325" width="10.006" height="10.006"/>
			<rect x="63.223" y="85.584" fill="#ED3325" width="10.006" height="10.006"/>
		</g>
		<g>
			<rect x="81.148" y="57.307" fill="#67A3AB" width="10.006" height="10.006"/>
			<rect x="93.853" y="57.307" fill="#67A3AB" width="10.006" height="10.006"/>
			<rect x="106.559" y="57.307" fill="#67A3AB" width="10.006" height="10.006"/>
		</g>
		<path fill="none" stroke="#929497" stroke-width="3" stroke-miterlimit="10" d="M68.141,63.259
			c-3.86-1.477-8.127-2.304-12.62-2.304c-17.247,0-31.228,12.091-31.228,27.007c0,6.919,3.012,13.228,7.961,18.007l-0.003-0.001
			c3.971,4.795-6.203,9.001-6.203,9.001s29.118,0,29.473,0c17.247,0,31.228-12.091,31.228-27.007c0-0.268-0.014-0.533-0.023-0.799
			C76.14,83.229,68.602,74.057,68.141,63.259z"/>
	</g>
</g>
<g id="Layer_2">
</g>
</svg>
