<?xml version="1.0" encoding="utf-8"?>
<!-- Generator: Adobe Illustrator 17.1.0, SVG Export Plug-In . SVG Version: 6.00 Build 0)  -->
<!DOCTYPE svg PUBLIC "-//W3C//DTD SVG 1.1//EN" "http://www.w3.org/Graphics/SVG/1.1/DTD/svg11.dtd">
<svg version="1.1" xmlns="http://www.w3.org/2000/svg" xmlns:xlink="http://www.w3.org/1999/xlink" x="0px" y="0px"
	 viewBox="0 0 151.833 148.5" enable-background="new 0 0 151.833 148.5" xml:space="preserve">
<g id="Layer_1">
	<g>
		<g>
			<g>
				<g>
					<g>
						
							<line fill="none" stroke="#A6A8AB" stroke-width="0.25" stroke-miterlimit="10" x1="59.407" y1="100.705" x2="89.076" y2="71.037"/>
						<g>
							
								<line fill="none" stroke="#A6A8AB" stroke-width="0.25" stroke-miterlimit="10" x1="74.241" y1="106.85" x2="74.241" y2="64.892"/>
							
								<line fill="none" stroke="#A6A8AB" stroke-width="0.25" stroke-miterlimit="10" x1="53.263" y1="85.871" x2="95.22" y2="85.871"/>
							
								<line fill="none" stroke="#A6A8AB" stroke-width="0.25" stroke-miterlimit="10" x1="59.407" y1="71.037" x2="89.076" y2="100.705"/>
						</g>
					</g>
					
						<line fill="none" stroke="#A6A8AB" stroke-width="0.25" stroke-miterlimit="10" x1="56.607" y1="45.623" x2="91.875" y2="126.063"/>
					
						<line fill="none" stroke="#A6A8AB" stroke-width="0.25" stroke-miterlimit="10" x1="91.999" y1="45.678" x2="56.484" y2="126.009"/>
					
						<line fill="none" stroke="#A6A8AB" stroke-width="0.25" stroke-miterlimit="10" x1="114.926" y1="69.31" x2="33.557" y2="102.377"/>
					
						<line fill="none" stroke="#A6A8AB" stroke-width="0.25" stroke-miterlimit="10" x1="115.043" y1="102.087" x2="33.44" y2="69.6"/>
				</g>
				<g>
					<g>
						<circle fill="#67A3AB" cx="74.476" cy="63.44" r="6.627"/>
					</g>
					<path fill="#67A3AB" d="M74.476,56.813L74.476,56.813l0,6.627l-6.153-2.452c-0.303,0.759-0.474,1.585-0.474,2.452
						c0,3.66,2.967,6.627,6.627,6.627c3.66,0,6.627-2.967,6.627-6.627C81.103,59.78,78.136,56.813,74.476,56.813z"/>
				</g>
				<g>
					<g>
						<circle fill="#67A3AB" cx="91.875" cy="126.741" r="6.627"/>
					</g>
					<path fill="#67A3AB" d="M96.575,131.414L96.575,131.414l-4.699-4.673l2.381-6.186c-0.864-0.441-4.5-1.082-7.081,1.513
						c-2.581,2.595-2.569,6.791,0.027,9.372S93.994,134.009,96.575,131.414z"/>
				</g>
				<g>
					<g>
						<circle fill="#67A3AB" cx="92.162" cy="103.634" r="6.627"/>
					</g>
				</g>
				<path fill="#67A3AB" d="M98.593,79.322L98.593,79.322l0,1.95v4.677h-6.627c0,3.66,2.967,6.627,6.627,6.627
					c3.66,0,6.627-2.967,6.627-6.627C105.22,82.289,102.253,79.322,98.593,79.322z"/>
				<g>
					<g>
						<circle fill="#67A3AB" cx="56.791" cy="103.634" r="6.627"/>
					</g>
				</g>
				<g>
					<g>
						<circle fill="#ED3325" cx="91.875" cy="45.678" r="6.627"/>
					</g>
				</g>
				<g>
					<g>
						<circle fill="#67A3AB" cx="114.926" cy="102.087" r="6.627"/>
					</g>
				</g>
				<g>
					<g>
						<circle fill="#67A3AB" cx="56.791" cy="68.263" r="6.627"/>
					</g>
				</g>
				<g>
					<g>
						<circle fill="#67A3AB" cx="56.791" cy="45.623" r="6.627"/>
					</g>
				</g>
				<g>
					<path fill="#67A3AB" d="M93.769,61.636L93.769,61.636l0,6.627l-6.153-2.452c-0.303,0.759-0.474,1.585-0.474,2.452
						c0,3.66,2.967,6.627,6.627,6.627c3.66,0,6.627-2.967,6.627-6.627C100.397,64.603,97.43,61.636,93.769,61.636z"/>
				</g>
				<g>
					<g>
						<circle fill="#67A3AB" cx="50.36" cy="85.949" r="6.627"/>
					</g>
				</g>
				<g>
					<g>
						<circle fill="#67A3AB" cx="98.593" cy="85.949" r="6.627"/>
					</g>
					<path fill="#67A3AB" d="M91.966,85.949c0,3.66,2.967,6.627,6.627,6.627s6.627-2.967,6.627-6.627H91.966z"/>
				</g>
				<g>
					<g>
						<g>
							<circle fill="#67A3AB" cx="74.476" cy="110.065" r="6.627"/>
						</g>
					</g>
					<path fill="#67A3AB" d="M67.849,110.065c0,3.66,2.967,6.627,6.627,6.627c3.66,0,6.627-2.967,6.627-6.627H67.849z"/>
					<path fill="#67A3AB" d="M43.733,85.949c0,3.66,2.967,6.627,6.627,6.627c3.66,0,6.627-2.967,6.627-6.627H43.733z"/>
				</g>
				<circle fill="#67A3AB" cx="93.769" cy="68.263" r="6.627"/>
				<circle fill="#67A3AB" cx="33.44" cy="102.377" r="6.627"/>
				<circle fill="#67A3AB" cx="33.557" cy="69.6" r="6.627"/>
				<circle fill="#67A3AB" cx="74.476" cy="85.949" r="3.721"/>
				<g>
					<circle fill="#67A3AB" cx="114.926" cy="69.31" r="6.627"/>
					<path fill="#67A3AB" d="M114.926,62.683c-3.66,0-6.627,2.967-6.627,6.627c0,3.66,2.967,6.627,6.627,6.627V62.683z"/>
				</g>
				<g>
					<circle fill="#67A3AB" cx="56.484" cy="126.009" r="6.627"/>
					<path fill="#67A3AB" d="M51.798,121.323c-2.588,2.588-2.588,6.784,0,9.372c2.588,2.588,6.784,2.588,9.372,0L51.798,121.323z"/>
				</g>
			</g>
		</g>
		<g>
			
				<rect x="84.489" y="13.683" transform="matrix(0.7071 -0.7071 0.7071 0.7071 11.6307 72.0557)" fill="#EE3124" width="16.61" height="16.61"/>
			
				<rect x="91.605" y="34.226" transform="matrix(0.7072 -0.707 0.707 0.7072 2.1308 75.9763)" fill="#EE3124" width="2.379" height="2.379"/>
			<g>
				<path fill="#FFFFFF" d="M94.048,15.806v0.618l-0.653,7.843h-1.184l-0.671-7.843v-0.618H94.048z M91.628,28.171v-2.42h2.349v2.42
					H91.628z"/>
			</g>
		</g>
	</g>
</g>
<g id="Layer_2">
</g>
</svg>
