<?xml version="1.0" encoding="utf-8"?>
<!-- Generator: Adobe Illustrator 17.1.0, SVG Export Plug-In . SVG Version: 6.00 Build 0)  -->
<!DOCTYPE svg PUBLIC "-//W3C//DTD SVG 1.1//EN" "http://www.w3.org/Graphics/SVG/1.1/DTD/svg11.dtd">
<svg version="1.1" xmlns="http://www.w3.org/2000/svg" xmlns:xlink="http://www.w3.org/1999/xlink" x="0px" y="0px"
	 viewBox="0 0 148.679 148.5" enable-background="new 0 0 148.679 148.5" xml:space="preserve">
<g id="Layer_1">
	<polygon fill="#67A2AB" points="74.099,0 0,74.099 74.099,148.199 148.679,74.099 	"/>
</g>
<g id="Layer_2">
	<polygon fill="#FFFFFF" points="109.252,45.08 39.427,45.08 41.797,50.412 101.132,50.412 97.768,58.174 43.41,58.174 
		50.916,75.503 90.261,75.503 86.384,84.452 54.793,84.452 62.336,101.864 73.469,101.854 70.086,113.25 62.281,113.212 
		72.754,123.684 83.226,113.212 75.365,113.25 80.282,96.354 65.808,96.464 62.914,89.784 89.885,89.784 98.382,70.171 
		54.417,70.171 51.53,63.506 101.269,63.506 	"/>
</g>
</svg>
