<?xml version="1.0" encoding="utf-8"?>
<!-- Generator: Adobe Illustrator 17.1.0, SVG Export Plug-In . SVG Version: 6.00 Build 0)  -->
<!DOCTYPE svg PUBLIC "-//W3C//DTD SVG 1.1//EN" "http://www.w3.org/Graphics/SVG/1.1/DTD/svg11.dtd">
<svg version="1.1" xmlns="http://www.w3.org/2000/svg" xmlns:xlink="http://www.w3.org/1999/xlink" x="0px" y="0px"
	 viewBox="0 0 148.679 148.5" enable-background="new 0 0 148.679 148.5" xml:space="preserve">
<g id="Layer_1">
	
		<rect x="21.703" y="21.703" transform="matrix(0.7071 -0.7071 0.7071 0.7071 -30.6929 74.0993)" fill="#67A2AB" width="104.792" height="104.792"/>
	<g>
		<rect x="43.641" y="40.942" fill="#67A2AB" width="32.25" height="32.25"/>
		<g>
			<polyline fill="none" stroke="#FFFFFF" stroke-width="2" stroke-miterlimit="10" points="43.641,46.942 43.641,40.942 
				49.641,40.942 			"/>
			
				<line fill="none" stroke="#FFFFFF" stroke-width="2" stroke-miterlimit="10" stroke-dasharray="6.75,6.75" x1="56.391" y1="40.942" x2="66.516" y2="40.942"/>
			<polyline fill="none" stroke="#FFFFFF" stroke-width="2" stroke-miterlimit="10" points="69.891,40.942 75.891,40.942 
				75.891,46.942 			"/>
			
				<line fill="none" stroke="#FFFFFF" stroke-width="2" stroke-miterlimit="10" stroke-dasharray="6.75,6.75" x1="75.891" y1="53.692" x2="75.891" y2="63.817"/>
			<polyline fill="none" stroke="#FFFFFF" stroke-width="2" stroke-miterlimit="10" points="75.891,67.192 75.891,73.192 
				69.891,73.192 			"/>
			
				<line fill="none" stroke="#FFFFFF" stroke-width="2" stroke-miterlimit="10" stroke-dasharray="6.75,6.75" x1="63.141" y1="73.192" x2="53.016" y2="73.192"/>
			<polyline fill="none" stroke="#FFFFFF" stroke-width="2" stroke-miterlimit="10" points="49.641,73.192 43.641,73.192 
				43.641,67.192 			"/>
			
				<line fill="none" stroke="#FFFFFF" stroke-width="2" stroke-miterlimit="10" stroke-dasharray="6.75,6.75" x1="43.641" y1="60.442" x2="43.641" y2="50.317"/>
		</g>
	</g>
	<g>
		<rect x="53.641" y="50.942" fill="#67A2AB" width="32.25" height="32.25"/>
		<g>
			<polyline fill="none" stroke="#FFFFFF" stroke-width="2" stroke-miterlimit="10" points="53.641,56.942 53.641,50.942 
				59.641,50.942 			"/>
			
				<line fill="none" stroke="#FFFFFF" stroke-width="2" stroke-miterlimit="10" stroke-dasharray="6.75,6.75" x1="66.391" y1="50.942" x2="76.516" y2="50.942"/>
			<polyline fill="none" stroke="#FFFFFF" stroke-width="2" stroke-miterlimit="10" points="79.891,50.942 85.891,50.942 
				85.891,56.942 			"/>
			
				<line fill="none" stroke="#FFFFFF" stroke-width="2" stroke-miterlimit="10" stroke-dasharray="6.75,6.75" x1="85.891" y1="63.692" x2="85.891" y2="73.817"/>
			<polyline fill="none" stroke="#FFFFFF" stroke-width="2" stroke-miterlimit="10" points="85.891,77.192 85.891,83.192 
				79.891,83.192 			"/>
			
				<line fill="none" stroke="#FFFFFF" stroke-width="2" stroke-miterlimit="10" stroke-dasharray="6.75,6.75" x1="73.141" y1="83.192" x2="63.016" y2="83.192"/>
			<polyline fill="none" stroke="#FFFFFF" stroke-width="2" stroke-miterlimit="10" points="59.641,83.192 53.641,83.192 
				53.641,77.192 			"/>
			
				<line fill="none" stroke="#FFFFFF" stroke-width="2" stroke-miterlimit="10" stroke-dasharray="6.75,6.75" x1="53.641" y1="70.442" x2="53.641" y2="60.317"/>
		</g>
	</g>
	<g>
		<rect x="63.641" y="60.942" fill="#67A2AB" width="32.25" height="32.25"/>
		<g>
			<polyline fill="none" stroke="#FFFFFF" stroke-width="2" stroke-miterlimit="10" points="63.641,66.942 63.641,60.942 
				69.641,60.942 			"/>
			
				<line fill="none" stroke="#FFFFFF" stroke-width="2" stroke-miterlimit="10" stroke-dasharray="6.75,6.75" x1="76.391" y1="60.942" x2="86.516" y2="60.942"/>
			<polyline fill="none" stroke="#FFFFFF" stroke-width="2" stroke-miterlimit="10" points="89.891,60.942 95.891,60.942 
				95.891,66.942 			"/>
			
				<line fill="none" stroke="#FFFFFF" stroke-width="2" stroke-miterlimit="10" stroke-dasharray="6.75,6.75" x1="95.891" y1="73.692" x2="95.891" y2="83.817"/>
			<polyline fill="none" stroke="#FFFFFF" stroke-width="2" stroke-miterlimit="10" points="95.891,87.192 95.891,93.192 
				89.891,93.192 			"/>
			
				<line fill="none" stroke="#FFFFFF" stroke-width="2" stroke-miterlimit="10" stroke-dasharray="6.75,6.75" x1="83.141" y1="93.192" x2="73.016" y2="93.192"/>
			<polyline fill="none" stroke="#FFFFFF" stroke-width="2" stroke-miterlimit="10" points="69.641,93.192 63.641,93.192 
				63.641,87.192 			"/>
			
				<line fill="none" stroke="#FFFFFF" stroke-width="2" stroke-miterlimit="10" stroke-dasharray="6.75,6.75" x1="63.641" y1="80.442" x2="63.641" y2="70.317"/>
		</g>
	</g>
	
		<rect x="73.949" y="71.25" fill="#67A2AB" stroke="#FFFFFF" stroke-width="3" stroke-miterlimit="10" width="32.25" height="32.25"/>
</g>
<g id="Layer_2">
</g>
</svg>
