<?xml version="1.0" encoding="utf-8"?>
<!-- Generator: Adobe Illustrator 17.1.0, SVG Export Plug-In . SVG Version: 6.00 Build 0)  -->
<!DOCTYPE svg PUBLIC "-//W3C//DTD SVG 1.1//EN" "http://www.w3.org/Graphics/SVG/1.1/DTD/svg11.dtd">
<svg version="1.1" id="Layer_1" xmlns="http://www.w3.org/2000/svg" xmlns:xlink="http://www.w3.org/1999/xlink" x="0px" y="0px"
	 viewBox="0 156 612 612" enable-background="new 0 156 612 612" xml:space="preserve">
<g id="Layer_1_1_">
	<circle fill="#FFFFFF" cx="443.1" cy="445.1" r="106.9"/>
	<g>
		<path stroke="#231F20" stroke-miterlimit="10" d="M441.9,557.8c-61.6,0-111.6-50.1-111.6-111.6c0-61.6,50.1-111.6,111.6-111.6
			c61.6,0,111.6,50.1,111.6,111.6C553.6,507.7,503.5,557.8,441.9,557.8z M441.9,341.8c-57.5,0-104.4,46.8-104.4,104.4
			s46.8,104.4,104.4,104.4s104.4-46.8,104.4-104.4C546.3,388.6,499.5,341.8,441.9,341.8z"/>
	</g>
	<g>
		<path d="M443.8,545.5l-0.3-14.5c2.2,0,4.5-0.2,6.7-0.4l1.4,14.5C449,545.3,446.4,545.4,443.8,545.5z M430.7,544.9
			c-2.6-0.3-5.2-0.7-7.7-1.2l2.7-14.3c2.2,0.4,4.4,0.8,6.6,1L430.7,544.9z M464.5,542.9l-3.3-14.2c2.1-0.5,4.3-1.1,6.4-1.8l4.4,13.9
			C469.6,541.6,467,542.3,464.5,542.9z M410.4,540.4c-2.5-0.8-4.9-1.8-7.3-2.8l5.7-13.4c2,0.9,4.2,1.7,6.3,2.4L410.4,540.4z
			 M484.2,536.1l-6.2-13.2c2-0.9,4-2,5.9-3.1l7.2,12.6C488.9,533.7,486.6,535,484.2,536.1z M391.4,531.7c-2.2-1.3-4.4-2.8-6.6-4.3
			l8.4-11.9c1.8,1.3,3.7,2.5,5.6,3.6L391.4,531.7z M502.1,525.2l-8.8-11.6c1.8-1.3,3.5-2.8,5.2-4.3l9.7,10.8
			C506.2,522,504.1,523.7,502.1,525.2z M374.6,519.2c-1.9-1.8-3.8-3.6-5.5-5.5l10.7-9.9c1.5,1.6,3.1,3.2,4.7,4.7L374.6,519.2z
			 M517.3,510.9l-11-9.5c1.5-1.7,2.9-3.5,4.2-5.2l11.7,8.6C520.6,506.9,519,508.9,517.3,510.9z M360.8,503.6
			c-1.5-2.1-2.9-4.3-4.3-6.6l12.5-7.5c1.1,1.9,2.4,3.8,3.7,5.6L360.8,503.6z M529.1,493.8l-12.8-7c1.1-1.9,2.1-4,3-6l13.3,6
			C531.6,489.1,530.4,491.5,529.1,493.8z M350.6,485.4c-1-2.4-2-4.8-2.8-7.3l13.8-4.7c0.7,2.1,1.5,4.2,2.4,6.2L350.6,485.4z
			 M537.2,474.5l-13.9-4.1c0.6-2.1,1.2-4.3,1.7-6.5l14.2,3C538.6,469.4,537.9,472,537.2,474.5z M344.4,465.4
			c-0.5-2.6-0.9-5.2-1.2-7.7l14.4-1.7c0.3,2.2,0.6,4.4,1,6.6L344.4,465.4z M541,454l-14.5-1.1c0.2-2.2,0.3-4.4,0.3-6.7h14.5
			C541.3,448.7,541.2,451.4,541,454z M357.1,444.9l-14.5-0.2c0-2.6,0.2-5.2,0.4-7.8l14.5,1.4C357.3,440.4,357.1,442.6,357.1,444.9z
			 M526.3,437.5c-0.2-2.2-0.5-4.4-0.9-6.6l14.3-2.6c0.5,2.6,0.8,5.2,1.1,7.8L526.3,437.5z M359.2,427.2l-14.2-3.2
			c0.6-2.5,1.3-5.1,2-7.6l13.9,4.4C360.3,422.8,359.7,425,359.2,427.2z M522.7,420.1c-0.7-2.1-1.4-4.2-2.3-6.3l13.4-5.5
			c1,2.4,1.9,4.9,2.7,7.4L522.7,420.1z M365,410.3l-13.2-6.1c1.1-2.4,2.3-4.7,3.6-7l12.6,7.2C367,406.3,365.9,408.3,365,410.3z
			 M515.5,403.8c-1.1-1.9-2.3-3.8-3.6-5.7l12-8.2c1.5,2.1,2.9,4.4,4.2,6.6L515.5,403.8z M374.2,395l-11.6-8.8c1.6-2.1,3.2-4.1,5-6.1
			l10.9,9.6C377,391.5,375.5,393.3,374.2,395z M505,389.4c-1.5-1.6-3.1-3.3-4.7-4.8l10-10.5c1.9,1.8,3.7,3.7,5.5,5.6L505,389.4z
			 M386.4,382l-9.5-11c2-1.7,4-3.3,6.1-4.9l8.6,11.7C389.8,379.2,388.1,380.6,386.4,382z M491.7,377.5c-1.8-1.3-3.7-2.6-5.6-3.7
			l7.6-12.4c2.2,1.4,4.4,2.8,6.5,4.4L491.7,377.5z M401,371.8l-7-12.7c2.3-1.3,4.6-2.4,7-3.5l6,13.2
			C405,369.7,402.9,370.7,401,371.8z M476.3,368.6c-2-0.9-4.1-1.7-6.2-2.5l4.8-13.7c2.5,0.9,4.9,1.8,7.3,2.9L476.3,368.6z
			 M417.4,364.9l-4.2-13.9c2.5-0.7,5-1.4,7.6-2l3.1,14.2C421.7,363.7,419.5,364.3,417.4,364.9z M459.3,363.1
			c-2.2-0.5-4.4-0.8-6.6-1.1l1.8-14.4c2.6,0.3,5.2,0.8,7.7,1.3L459.3,363.1z M434.9,361.6l-1.2-14.5c2.6-0.2,5.2-0.3,7.8-0.3
			l0.1,14.5C439.4,361.3,437.1,361.4,434.9,361.6z"/>
	</g>
	<path d="M447.9,375.5c0-1.7-1.3-3-3-3l0,0c-1.7,0-3,1.3-3,3V453c0,1.7,1.3,3,3,3l0,0c1.7,0,3-1.3,3-3V375.5z"/>
	<path d="M502.9,456c0,1.5-1.2,2.6-2.6,2.6h-52.7c-1.5,0-2.6-1.2-2.6-2.6l0,0c0-1.5,1.2-2.6,2.6-2.6h52.7
		C501.8,453.3,502.9,454.5,502.9,456L502.9,456z"/>
	<g>
		<circle fill="#FFFFFF" cx="263.7" cy="446.7" r="107.5"/>
		<g>
			<path stroke="#231F20" stroke-miterlimit="10" d="M263.1,557.8c-61.6,0-111.6-50.1-111.6-111.6c0-61.6,50.1-111.6,111.6-111.6
				c61.6,0,111.6,50.1,111.6,111.6C374.8,507.7,324.7,557.8,263.1,557.8z M263.1,341.8c-57.5,0-104.4,46.8-104.4,104.4
				s46.8,104.4,104.4,104.4c57.5,0,104.4-46.8,104.4-104.4C367.5,388.6,320.7,341.8,263.1,341.8z"/>
		</g>
		<g>
			<path d="M265,545.5l-0.3-14.5c2.2,0,4.5-0.2,6.7-0.4l1.4,14.5C270.2,545.3,267.6,545.4,265,545.5z M251.9,544.9
				c-2.6-0.3-5.2-0.7-7.7-1.2l2.7-14.3c2.2,0.4,4.4,0.8,6.6,1L251.9,544.9z M285.7,542.9l-3.3-14.2c2.1-0.5,4.3-1.1,6.4-1.8
				l4.4,13.9C290.8,541.6,288.2,542.3,285.7,542.9z M231.6,540.4c-2.5-0.8-4.9-1.8-7.3-2.8l5.7-13.4c2,0.9,4.2,1.7,6.3,2.4
				L231.6,540.4z M305.4,536.1l-6.2-13.2c2-0.9,4-2,5.9-3.1l7.2,12.6C310.1,533.7,307.8,535,305.4,536.1z M212.6,531.7
				c-2.2-1.3-4.4-2.8-6.6-4.3l8.4-11.9c1.8,1.3,3.7,2.5,5.6,3.6L212.6,531.7z M323.3,525.2l-8.8-11.6c1.8-1.3,3.5-2.8,5.2-4.3
				l9.7,10.8C327.4,522,325.3,523.7,323.3,525.2z M195.8,519.2c-1.9-1.8-3.8-3.6-5.5-5.5l10.7-9.9c1.5,1.6,3.1,3.2,4.7,4.7
				L195.8,519.2z M338.5,510.9l-11-9.5c1.5-1.7,2.9-3.5,4.2-5.2l11.7,8.6C341.8,506.9,340.2,508.9,338.5,510.9z M182,503.6
				c-1.5-2.1-2.9-4.3-4.3-6.6l12.5-7.5c1.1,1.9,2.4,3.8,3.7,5.6L182,503.6z M350.3,493.8l-12.8-7c1.1-1.9,2.1-4,3-6l13.3,6
				C352.8,489.1,351.6,491.5,350.3,493.8z M171.8,485.4c-1-2.4-2-4.8-2.8-7.3l13.8-4.7c0.7,2.1,1.5,4.2,2.4,6.2L171.8,485.4z
				 M358.4,474.5l-13.9-4.1c0.6-2.1,1.2-4.3,1.7-6.5l14.2,3C359.8,469.4,359.1,472,358.4,474.5z M165.6,465.4
				c-0.5-2.6-0.9-5.2-1.2-7.7l14.4-1.7c0.3,2.2,0.6,4.4,1,6.6L165.6,465.4z M362.2,454l-14.5-1.1c0.2-2.2,0.3-4.4,0.3-6.7h14.5
				C362.5,448.7,362.4,451.4,362.2,454z M178.3,444.9l-14.5-0.2c0-2.6,0.2-5.2,0.4-7.8l14.5,1.4
				C178.5,440.4,178.3,442.6,178.3,444.9z M347.5,437.5c-0.2-2.2-0.5-4.4-0.9-6.6l14.3-2.6c0.5,2.6,0.8,5.2,1.1,7.8L347.5,437.5z
				 M180.4,427.2l-14.2-3.2c0.6-2.5,1.3-5.1,2-7.6l13.9,4.4C181.5,422.8,180.9,425,180.4,427.2z M343.9,420.1
				c-0.7-2.1-1.4-4.2-2.3-6.3l13.4-5.5c1,2.4,1.9,4.9,2.7,7.4L343.9,420.1z M186.2,410.3l-13.2-6.1c1.1-2.4,2.3-4.7,3.6-7l12.6,7.2
				C188.2,406.3,187.1,408.3,186.2,410.3z M336.7,403.8c-1.1-1.9-2.3-3.8-3.6-5.7l12-8.2c1.5,2.1,2.9,4.4,4.2,6.6L336.7,403.8z
				 M195.4,395l-11.6-8.8c1.6-2.1,3.2-4.1,5-6.1l10.9,9.6C198.2,391.5,196.8,393.3,195.4,395z M326.2,389.4
				c-1.5-1.6-3.1-3.3-4.7-4.8l10-10.5c1.9,1.8,3.7,3.7,5.5,5.6L326.2,389.4z M207.6,382l-9.5-11c2-1.7,4-3.3,6.1-4.9l8.6,11.7
				C211,379.2,209.3,380.6,207.6,382z M312.9,377.5c-1.8-1.3-3.7-2.6-5.6-3.7l7.6-12.4c2.2,1.4,4.4,2.8,6.5,4.4L312.9,377.5z
				 M222.2,371.8l-7-12.7c2.3-1.3,4.6-2.4,7-3.5l6,13.2C226.2,369.7,224.1,370.7,222.2,371.8z M297.5,368.6c-2-0.9-4.1-1.7-6.2-2.5
				l4.8-13.7c2.5,0.9,4.9,1.8,7.3,2.9L297.5,368.6z M238.6,364.9l-4.2-13.9c2.5-0.7,5-1.4,7.6-2l3.1,14.2
				C242.9,363.7,240.7,364.3,238.6,364.9z M280.5,363.1c-2.2-0.5-4.4-0.8-6.6-1.1l1.8-14.4c2.6,0.3,5.2,0.8,7.7,1.3L280.5,363.1z
				 M256.1,361.6l-1.2-14.5c2.6-0.2,5.2-0.3,7.8-0.3l0.1,14.5C260.6,361.3,258.3,361.4,256.1,361.6z"/>
		</g>
		<path d="M269.1,375.5c0-1.7-1.3-3-3-3l0,0c-1.7,0-3,1.3-3,3V453c0,1.7,1.3,3,3,3l0,0c1.7,0,3-1.3,3-3V375.5z"/>
		<path d="M228.2,416.8c1-1,2.7-1,3.7,0l37.3,37.3c1,1,1,2.7,0,3.7l0,0c-1,1-2.7,1-3.7,0l-37.3-37.3
			C227.1,419.5,227.1,417.8,228.2,416.8L228.2,416.8z"/>
		<circle fill="#67A2AB" cx="266.1" cy="456" r="11.5"/>
	</g>
	<circle fill="#67A2AB" cx="444.9" cy="456" r="11.5"/>
	<g>
		<path fill="#67A2AB" d="M52.5,407.8h75.8c4.1,0,7.4-3.3,7.4-7.4c0-4.1-3.3-7.4-7.4-7.4H52.5c-4.1,0-7.4,3.3-7.4,7.4
			S48.4,407.8,52.5,407.8z"/>
		<path fill="#67A2AB" d="M156.4,351.9H80.6c-4.1,0-7.4,3.3-7.4,7.4c0,4.1,3.3,7.4,7.4,7.4h75.8c4.1,0,7.4-3.3,7.4-7.4
			C163.8,355.2,160.5,351.9,156.4,351.9z"/>
		<path fill="#67A2AB" d="M118,449c4.1,0,7.4-3.3,7.4-7.4c0-4.1-3.3-7.4-7.4-7.4H42.2c-4.1,0-7.4,3.3-7.4,7.4c0,4.1,3.3,7.4,7.4,7.4
			H118z"/>
		<path fill="#67A2AB" d="M131.5,482.8c0-4.1-3.3-7.4-7.4-7.4H48.3c-4.1,0-7.4,3.3-7.4,7.4c0,4.1,3.3,7.4,7.4,7.4h75.8
			C128.2,490.1,131.5,486.8,131.5,482.8z"/>
		<path fill="#67A2AB" d="M147.2,516.6H71.3c-4.1,0-7.4,3.3-7.4,7.4s3.3,7.4,7.4,7.4h75.8c4.1,0,7.4-3.3,7.4-7.4
			S151.2,516.6,147.2,516.6z"/>
	</g>
</g>
<g id="Layer_2">
</g>
</svg>
