<?xml version="1.0" encoding="utf-8"?>
<!-- Generator: Adobe Illustrator 17.1.0, SVG Export Plug-In . SVG Version: 6.00 Build 0)  -->
<!DOCTYPE svg PUBLIC "-//W3C//DTD SVG 1.1//EN" "http://www.w3.org/Graphics/SVG/1.1/DTD/svg11.dtd">
<svg version="1.1" id="Layer_1" xmlns="http://www.w3.org/2000/svg" xmlns:xlink="http://www.w3.org/1999/xlink" x="0px" y="0px"
	 viewBox="0 107 612 612" enable-background="new 0 107 612 612" xml:space="preserve">
<g id="Layer_1_1_">
</g>
<g id="Layer_2">
	<g>
		<rect x="96.5" y="290.9" fill="none" width="425.8" height="228.6"/>
		<g>
			<path fill="#AD4242" d="M376,318.4c0,0,0,5.6,0,7c0,2.8,7.6,5,17,5s17-2.2,17-5c0-1.4,0-7,0-7s-4.5,4.2-17,4.2
				C378.8,322.6,376,318.4,376,318.4z"/>
			<path fill="#AD4242" d="M376,330.5c0,0,0,8.1,0,9.4c0,2.8,7.6,5,17,5s17-2.2,17-5c0-1.4,0-9.4,0-9.4s-4.5,4.2-17,4.2
				C378.8,334.7,376,330.5,376,330.5z"/>
			<path fill="#AD4242" d="M393,301.3c-9.4,0-17,2.2-17,5c0,0.2,0,0.4,0,0.7v0.6c0,1.2,0,2.7,0,4c0,0.7,0,1.3,0,1.7
				c0,2.8,7.6,5,17,5c9.4,0,17-2.2,17-5c0-1.4,0-5.6,0-7C410,303.6,402.4,301.3,393,301.3z"/>
		</g>
		<g>
			<path fill="#AD4242" d="M456,402.2c0,0,0,5.6,0,7c0,2.8,7.6,5,17,5s17-2.2,17-5c0-1.4,0-7,0-7s-4.5,4.2-17,4.2
				C458.8,406.5,456,402.2,456,402.2z"/>
			<path fill="#AD4242" d="M456,414.3c0,0,0,8.1,0,9.4c0,2.8,7.6,5,17,5s17-2.2,17-5c0-1.4,0-9.4,0-9.4s-4.5,4.2-17,4.2
				C458.8,418.5,456,414.3,456,414.3z"/>
			<path fill="#AD4242" d="M473,385.2c-9.4,0-17,2.2-17,5c0,0.2,0,0.4,0,0.7v0.6c0,1.2,0,2.7,0,4c0,0.7,0,1.3,0,1.7
				c0,2.8,7.6,5,17,5c9.4,0,17-2.2,17-5c0-1.4,0-5.6,0-7C490.1,387.4,482.5,385.2,473,385.2z"/>
		</g>
		<rect x="96.5" y="290.9" fill="none" stroke="#000000" stroke-width="2" stroke-miterlimit="10" width="425.8" height="228.6"/>
		<circle fill="none" stroke="#A6A8AB" stroke-miterlimit="10" cx="393" cy="323.1" r="90.5"/>
		<circle fill="none" stroke="#A6A8AB" stroke-miterlimit="10" cx="473" cy="407" r="90.5"/>
		<circle fill="#67A3AB" cx="234.7" cy="403.3" r="80"/>
		<g>
			<g>
				<path fill="#AD4242" d="M212.2,494.3c0,0,0,8.1,0,9.4c0,2.8,7.6,5,17,5c9.4,0,17-2.2,17-5c0-1.4,0-9.4,0-9.4s-4.5,4.2-17,4.2
					C215,498.5,212.2,494.3,212.2,494.3z"/>
				<path fill="#AD4242" d="M229.2,465.2c-9.4,0-17,2.2-17,5c0,0.2,0,0.4,0,0.7v0.6c0,1.2,0,2.7,0,4c0,0.7,0,1.3,0,1.7
					c0,2.8,7.6,5,17,5c9.4,0,17-2.2,17-5c0-1.4,0-5.6,0-7C246.2,467.4,238.6,465.2,229.2,465.2z"/>
				<path fill="#AD4242" d="M212.2,482.3c0,0,0,5.6,0,7c0,2.8,7.6,5,17,5c9.4,0,17-2.2,17-5c0-1.4,0-7,0-7s-4.5,4.2-17,4.2
					C215,486.5,212.2,482.3,212.2,482.3z"/>
			</g>
			<circle fill="none" stroke="#A6A8AB" stroke-miterlimit="10" cx="229.2" cy="487" r="90.5"/>
		</g>
		<g>
			<g>
				<path fill="#AD4242" d="M130.1,398.9c0,0,0,5,0,6.3c0,2.5,6.8,4.5,15.2,4.5c8.4,0,15.2-2,15.2-4.5c0-1.2,0-6.3,0-6.3
					s-4,3.8-15.2,3.8C132.6,402.7,130.1,398.9,130.1,398.9z"/>
				<path fill="#AD4242" d="M130.1,409.7c0,0,0,7.2,0,8.5c0,2.5,6.8,4.5,15.2,4.5c8.4,0,15.2-2,15.2-4.5c0-1.2,0-8.5,0-8.5
					s-4,3.8-15.2,3.8C132.6,413.5,130.1,409.7,130.1,409.7z"/>
				<path fill="#AD4242" d="M145.4,383.7c-8.4,0-15.2,2-15.2,4.5c0,0.2,0,0.4,0,0.6v0.6c0,1.1,0,2.5,0,3.6c0,0.6,0,1.2,0,1.5
					c0,2.5,6.8,4.5,15.2,4.5c8.4,0,15.2-2,15.2-4.5c0-1.2,0-5,0-6.3C160.6,385.7,153.8,383.7,145.4,383.7z"/>
			</g>
			<circle fill="none" stroke="#A6A8AB" stroke-miterlimit="10" cx="145.4" cy="403.2" r="81"/>
		</g>
		<g>
			<g>
				<path fill="#AD4242" d="M372.2,402.2c0,0,0,5.6,0,7c0,2.8,7.6,5,17,5s17-2.2,17-5c0-1.4,0-7,0-7s-4.5,4.2-17,4.2
					C375,406.5,372.2,402.2,372.2,402.2z"/>
				<path fill="#AD4242" d="M372.2,414.3c0,0,0,8.1,0,9.4c0,2.8,7.6,5,17,5s17-2.2,17-5c0-1.4,0-9.4,0-9.4s-4.5,4.2-17,4.2
					C375,418.5,372.2,414.3,372.2,414.3z"/>
				<path fill="#AD4242" d="M389.2,385.2c-9.4,0-17,2.2-17,5c0,0.2,0,0.4,0,0.7v0.6c0,1.2,0,2.7,0,4c0,0.7,0,1.3,0,1.7
					c0,2.8,7.6,5,17,5c9.4,0,17-2.2,17-5c0-1.4,0-5.6,0-7C406.2,387.4,398.6,385.2,389.2,385.2z"/>
			</g>
			<circle fill="none" stroke="#A6A8AB" stroke-miterlimit="10" cx="389.2" cy="407" r="90.5"/>
		</g>
		<g>
			<path fill="#FFFFFF" d="M217.6,397.5c0,0,0,5.6,0,7c0,2.8,7.6,5,17,5c9.4,0,17-2.2,17-5c0-1.4,0-7,0-7s-4.5,4.2-17,4.2
				C220.4,401.7,217.6,397.5,217.6,397.5z"/>
			<path fill="#FFFFFF" d="M217.6,409.5c0,0,0,8.1,0,9.4c0,2.8,7.6,5,17,5c9.4,0,17-2.2,17-5c0-1.4,0-9.4,0-9.4s-4.5,4.2-17,4.2
				C220.4,413.7,217.6,409.5,217.6,409.5z"/>
			<path fill="#FFFFFF" d="M234.7,380.4c-9.4,0-17,2.2-17,5c0,0.2,0,0.4,0,0.7v0.6c0,1.2,0,2.7,0,4c0,0.7,0,1.3,0,1.7
				c0,2.8,7.6,5,17,5s17-2.2,17-5c0-1.4,0-5.6,0-7C251.7,382.6,244.1,380.4,234.7,380.4z"/>
		</g>
	</g>
</g>
</svg>
