<?xml version="1.0" encoding="utf-8"?>
<!-- Generator: Adobe Illustrator 17.0.2, SVG Export Plug-In . SVG Version: 6.00 Build 0)  -->
<!DOCTYPE svg PUBLIC "-//W3C//DTD SVG 1.1//EN" "http://www.w3.org/Graphics/SVG/1.1/DTD/svg11.dtd">
<svg version="1.1" id="Layer_1" xmlns="http://www.w3.org/2000/svg" xmlns:xlink="http://www.w3.org/1999/xlink" x="0px" y="0px"
	 width="369.821px" height="332.75px" viewBox="0 0 369.821 332.75" enable-background="new 0 0 369.821 332.75"
	 xml:space="preserve">
<path fill="#D0D2D2" d="M238.442,93.387l-10.334-5.095l-2.568,0.558L72.692,122.051v119.556l155.202,33.712l10.548-3.923V93.387z
	 M224.942,271.513L77.337,239.45V124.207l147.604-32.062V271.513z M233.798,269.661l-3.612,1.344V93.09l3.612,1.781V269.661z"/>
<polygon fill="#D0D2D2" points="178.171,113.75 214.362,105.75 214.362,102.5 178.171,110.5 "/>
<polygon fill="#D0D2D2" points="185.525,120.125 214.362,113.75 214.362,110.5 185.525,116.875 "/>
<polygon fill="#D0D2D2" points="195.202,125.875 214.362,121.625 214.362,118.375 195.202,122.625 "/>
<polygon fill="#EFEFEF" points="77.337,134.25 199.944,266.083 77.337,239.45 "/>
</svg>
