<?xml version="1.0" encoding="utf-8"?>
<!-- Generator: Adobe Illustrator 17.1.0, SVG Export Plug-In . SVG Version: 6.00 Build 0)  -->
<!DOCTYPE svg PUBLIC "-//W3C//DTD SVG 1.1//EN" "http://www.w3.org/Graphics/SVG/1.1/DTD/svg11.dtd">
<svg version="1.1" xmlns="http://www.w3.org/2000/svg" xmlns:xlink="http://www.w3.org/1999/xlink" x="0px" y="0px"
	 viewBox="0 0 148.679 148.5" enable-background="new 0 0 148.679 148.5" xml:space="preserve">
<g id="Layer_1">
	<polygon fill="#67A2AB" points="74.099,0 0,74.099 74.099,148.199 148.679,74.099 	"/>
	<rect x="54.022" y="57.226" fill="#FFFFFF" stroke="#FFFFFF" stroke-miterlimit="10" width="8.024" height="16.382"/>
	<g>
		
			<rect x="61.377" y="83.972" fill="none" stroke="#FFFFFF" stroke-width="2" stroke-miterlimit="10" width="8.024" height="16.382"/>
		
			<rect x="46.667" y="83.972" fill="none" stroke="#FFFFFF" stroke-width="2" stroke-miterlimit="10" width="8.024" height="16.382"/>
	</g>
	<line fill="#FFFFFF" stroke="#FFFFFF" stroke-miterlimit="10" x1="58.034" y1="73.608" x2="50.679" y2="83.972"/>
	<line fill="#FFFFFF" stroke="#FFFFFF" stroke-miterlimit="10" x1="58.034" y1="73.608" x2="65.389" y2="83.972"/>
	<rect x="88.633" y="57.226" fill="#FFFFFF" stroke="#FFFFFF" stroke-miterlimit="10" width="8.024" height="16.382"/>
	<g>
		
			<rect x="95.988" y="83.972" fill="none" stroke="#FFFFFF" stroke-width="2" stroke-miterlimit="10" width="8.024" height="16.382"/>
		
			<rect x="81.278" y="83.972" fill="none" stroke="#FFFFFF" stroke-width="2" stroke-miterlimit="10" width="8.024" height="16.382"/>
	</g>
	<line fill="#FFFFFF" stroke="#FFFFFF" stroke-miterlimit="10" x1="92.645" y1="73.608" x2="85.29" y2="83.972"/>
	<line fill="#FFFFFF" stroke="#FFFFFF" stroke-miterlimit="10" x1="92.645" y1="73.608" x2="100" y2="83.972"/>
	<circle fill="#FFFFFF" stroke="#FFFFFF" stroke-miterlimit="10" cx="75.762" cy="43.531" r="6.687"/>
	<line fill="#FFFFFF" stroke="#FFFFFF" stroke-miterlimit="10" x1="69.248" y1="45.02" x2="58.034" y2="57.226"/>
	<line fill="#FFFFFF" stroke="#FFFFFF" stroke-miterlimit="10" x1="82.449" y1="45.02" x2="93.157" y2="57.226"/>
</g>
<g id="Layer_2">
</g>
</svg>
