<?xml version="1.0" encoding="utf-8"?>
<!-- Generator: Adobe Illustrator 17.1.0, SVG Export Plug-In . SVG Version: 6.00 Build 0)  -->
<!DOCTYPE svg PUBLIC "-//W3C//DTD SVG 1.1//EN" "http://www.w3.org/Graphics/SVG/1.1/DTD/svg11.dtd">
<svg version="1.1" xmlns="http://www.w3.org/2000/svg" xmlns:xlink="http://www.w3.org/1999/xlink" x="0px" y="0px"
	 viewBox="0 0 151.833 148.5" enable-background="new 0 0 151.833 148.5" xml:space="preserve">
<g id="Layer_1">
	<g>
		<g>
			<path fill="#77BDC6" d="M87.275,45.154c-12.781,0-23.178,10.397-23.178,23.178c0,12.779,10.397,23.175,23.178,23.175
				c12.779,0,23.175-10.396,23.175-23.175C110.45,55.552,100.054,45.154,87.275,45.154z M87.275,88.383
				c-11.058,0-20.054-8.995-20.054-20.051c0-11.058,8.996-20.054,20.054-20.054c11.056,0,20.051,8.996,20.051,20.054
				C107.326,79.388,98.332,88.383,87.275,88.383z"/>
			<path fill="#77BDC6" d="M73.002,74.922c6.75,10.611,17.785,6.544,17.896,6.503c0.622-0.237,1.004-0.831,1.004-1.46
				c0-0.186-0.033-0.373-0.102-0.558c-0.308-0.806-1.21-1.207-2.018-0.901c-0.355,0.136-8.746,3.222-14.144-5.262
				c-0.464-0.728-1.428-0.943-2.157-0.479C72.753,73.228,72.541,74.19,73.002,74.922z"/>
		</g>
		<path fill="#77BDC6" d="M87.277,38.606c-16.391,0-29.726,13.335-29.726,29.726c0,16.39,13.335,29.723,29.726,29.723
			c4.001,0,7.815-0.806,11.303-2.246l22.89,22.892c2.132,2.13,4.976,3.305,8.007,3.305c3.032,0,5.876-1.175,8.008-3.306
			c2.13-2.13,3.305-4.974,3.305-8.006c-0.002-3.03-1.174-5.874-3.306-8.004l-22.815-22.815c1.501-3.55,2.332-7.452,2.332-11.542
			C117,51.941,103.667,38.606,87.277,38.606z M136.886,110.694c-0.164,1.982-0.768,3.855-2.163,5.248
			c-1.395,1.395-3.268,1.949-5.245,2.162c-2.404,0.258-4.622-1.535-6.015-2.93l10.492-10.492
			C135.35,106.075,137.113,107.938,136.886,110.694z M131.231,101.812l-10.593,10.593L102.96,94.729l10.593-10.593L131.231,101.812z
			 M113.094,68.332c0.002,14.236-11.581,25.819-25.819,25.819S61.453,82.568,61.453,68.332c0-14.238,11.584-25.822,25.822-25.822
			C101.511,42.51,113.094,54.094,113.094,68.332z"/>
	</g>
	<path fill="#ED3325" d="M59.582,77.496c-0.945,0.276-1.941,0.432-2.974,0.432c-5.849,0-10.611-4.76-10.611-10.609
		s4.761-10.608,10.611-10.608c1.033,0,2.029,0.155,2.973,0.431c0.672-1.06,1.443-2.048,2.305-2.952
		c-1.633-0.659-3.412-1.031-5.278-1.031c-7.809,0-14.161,6.353-14.161,14.159s6.352,14.159,14.161,14.159
		c1.867,0,3.646-0.372,5.279-1.031C61.024,79.544,60.254,78.556,59.582,77.496z"/>
	<g>
		<path fill="#77BDC6" d="M68.642,89.368c-3.706,1.69-7.73,2.749-12.034,2.749c-17.896,0-31.004-18.19-36.139-24.802
			c5.126-6.615,18.193-24.793,36.139-24.793c5.231,0,10.049,1.56,14.382,3.925l3.608-2.88c-5.334-3.113-11.392-5.258-17.99-5.258
			c-24.311,0-41.376,29.011-41.376,29.011s17.065,29.01,41.376,29.01c6.026,0,11.606-1.785,16.592-4.466L68.642,89.368z"/>
		<path fill="#77BDC6" d="M80.724,47.759l-3.522,2.812c7.302,5.732,12.67,13.048,15.544,16.748
			c-3.061,3.942-8.951,11.986-16.995,17.847l4.207,2.304c11.185-8.532,18.029-20.151,18.029-20.151S91.455,56.227,80.724,47.759z"/>
	</g>
</g>
<g id="Layer_2">
</g>
</svg>
