<?xml version="1.0" encoding="utf-8"?>
<!-- Generator: Adobe Illustrator 17.1.0, SVG Export Plug-In . SVG Version: 6.00 Build 0)  -->
<!DOCTYPE svg PUBLIC "-//W3C//DTD SVG 1.1//EN" "http://www.w3.org/Graphics/SVG/1.1/DTD/svg11.dtd">
<svg version="1.1" xmlns="http://www.w3.org/2000/svg" xmlns:xlink="http://www.w3.org/1999/xlink" x="0px" y="0px"
	 viewBox="0 0 148.679 148.5" enable-background="new 0 0 148.679 148.5" xml:space="preserve">
<g id="Layer_1">
	
		<rect x="21.703" y="21.703" transform="matrix(0.7071 -0.7071 0.7071 0.7071 -30.6929 74.0993)" fill="#67A2AB" width="104.792" height="104.792"/>
	<polygon fill="#FFFFFF" points="42.156,97.151 42.156,48.797 39.906,48.797 39.906,97.151 39.906,97.976 39.906,99.401 
		111.012,99.401 111.012,97.151 	"/>
	<path fill="#FFFFFF" d="M103.763,47.387c-4.067,0-7.367,3.3-7.367,7.367c0,1.986,0.796,3.779,2.072,5.103l-8.547,11.74
		c-0.297-0.038-0.585-0.091-0.892-0.091c-1.511,0-2.911,0.46-4.082,1.237l-8.564-6.422c0.218-0.695,0.367-1.415,0.367-2.182
		c0-4.067-3.3-7.367-7.367-7.367c-4.067,0-7.367,3.3-7.367,7.367c0,1.506,0.458,2.911,1.238,4.077l-6.422,8.566
		c-0.695-0.216-1.417-0.365-2.182-0.365c-4.07,0-7.367,3.3-7.367,7.367c0,4.067,3.297,7.367,7.367,7.367s7.367-3.3,7.367-7.367
		c0-1.511-0.458-2.911-1.237-4.082l6.424-8.561c0.693,0.216,1.415,0.365,2.18,0.365c1.508,0,2.911-0.46,4.079-1.238l8.564,6.422
		c-0.216,0.695-0.365,1.42-0.365,2.182c0,4.067,3.3,7.367,7.367,7.367c4.067,0,7.367-3.3,7.367-7.367
		c0-1.986-0.791-3.779-2.067-5.103l8.542-11.74c0.297,0.038,0.585,0.091,0.892,0.091c4.067,0,7.367-3.3,7.367-7.367
		S107.83,47.387,103.763,47.387z M54.65,86.24c-1.357,0-2.456-1.098-2.456-2.456c0-1.357,1.098-2.456,2.456-2.456
		s2.456,1.098,2.456,2.456C57.106,85.141,56.008,86.24,54.65,86.24z M69.384,66.595c-1.357,0-2.456-1.098-2.456-2.456
		c0-1.357,1.098-2.456,2.456-2.456s2.456,1.098,2.456,2.456C71.84,65.496,70.742,66.595,69.384,66.595z M89.029,81.328
		c-1.357,0-2.456-1.098-2.456-2.456s1.098-2.456,2.456-2.456s2.456,1.098,2.456,2.456S90.387,81.328,89.029,81.328z M103.763,57.209
		c-1.357,0-2.456-1.098-2.456-2.456s1.098-2.456,2.456-2.456s2.456,1.098,2.456,2.456S105.12,57.209,103.763,57.209z"/>
</g>
<g id="Layer_2">
</g>
</svg>
