<?xml version="1.0" encoding="utf-8"?>
<!-- Generator: Adobe Illustrator 17.1.0, SVG Export Plug-In . SVG Version: 6.00 Build 0)  -->
<!DOCTYPE svg PUBLIC "-//W3C//DTD SVG 1.1//EN" "http://www.w3.org/Graphics/SVG/1.1/DTD/svg11.dtd">
<svg version="1.1" xmlns="http://www.w3.org/2000/svg" xmlns:xlink="http://www.w3.org/1999/xlink" x="0px" y="0px"
	 viewBox="0 0 148.679 148.5" enable-background="new 0 0 148.679 148.5" xml:space="preserve">
<g id="Layer_1">
	<g>
		
			<rect x="21.823" y="21.703" transform="matrix(0.7071 -0.7071 0.7071 0.7071 -30.6578 74.1842)" fill="#67A2AB" width="104.792" height="104.792"/>
	</g>
	<g>
		<rect x="52.684" y="50.92" fill="#FFFFFF" width="10.664" height="42.965"/>
	</g>
	<g>
		<rect x="69.091" y="73.546" fill="#FFFFFF" width="10.664" height="20.34"/>
	</g>
	<g>
		<polygon fill="#FFFFFF" points="45.945,98.856 45.945,44.414 43.695,44.414 43.695,98.856 43.695,99.681 43.695,101.106 
			104.282,101.106 104.282,98.856 		"/>
	</g>
	<g>
		<g>
			<path fill="#FFFFFF" d="M63.848,94.304H52.183V50.503h11.665V94.304z M53.183,93.468h9.665v-42.13h-9.665V93.468z"/>
		</g>
	</g>
	<g>
		<g>
			<path fill="#FFFFFF" d="M80.255,94.304H68.591V50.503h11.664V94.304z M69.591,93.468h9.664v-42.13h-9.664V93.468z"/>
		</g>
	</g>
	<g>
		<rect x="85.497" y="86.632" fill="#FFFFFF" width="10.664" height="7.253"/>
	</g>
	<g>
		<rect x="103.695" y="56.333" fill="#FFFFFF" width="2.212" height="44.773"/>
	</g>
	<g>
		<polygon fill="#FFFFFF" points="94.299,43.308 93.813,45.52 43.695,45.52 43.695,43.308 		"/>
	</g>
	<g>
		<path fill="#FFFFFF" d="M101.907,58.27c-5.583,0-10.125-4.542-10.125-10.125s4.542-10.125,10.125-10.125
			s10.125,4.542,10.125,10.125S107.49,58.27,101.907,58.27z M101.907,40.02c-4.48,0-8.125,3.645-8.125,8.125
			s3.645,8.125,8.125,8.125s8.125-3.645,8.125-8.125S106.387,40.02,101.907,40.02z"/>
	</g>
	<g>
		<polygon fill="#FFFFFF" points="95.662,54.5 95.662,93.468 85.998,93.468 85.998,51.338 93.782,51.338 93.782,50.503 
			84.998,50.503 84.998,94.304 96.662,94.304 96.662,54.5 		"/>
	</g>
	<g>
		<g>
			<path fill="#FFFFFF" d="M103.3,42.667v0.314l-0.737,6.918h-1.314l-0.735-6.918v-0.314H103.3z M100.639,53.623v-2.504h2.535v2.504
				H100.639z"/>
		</g>
	</g>
</g>
<g id="Layer_2">
</g>
</svg>
