<?xml version="1.0" encoding="utf-8"?>
<!-- Generator: Adobe Illustrator 17.1.0, SVG Export Plug-In . SVG Version: 6.00 Build 0)  -->
<!DOCTYPE svg PUBLIC "-//W3C//DTD SVG 1.1//EN" "http://www.w3.org/Graphics/SVG/1.1/DTD/svg11.dtd">
<svg version="1.1" xmlns="http://www.w3.org/2000/svg" xmlns:xlink="http://www.w3.org/1999/xlink" x="0px" y="0px"
	 viewBox="0 0 263.089 257.314" enable-background="new 0 0 263.089 257.314" xml:space="preserve">
<g id="Layer_1">
</g>
<g id="Layer_2">
</g>
<g id="Phase_3">
	<g>
		<g>
			
				<rect x="93.886" y="40.526" fill="#FFFFFF" stroke="#FFFFFF" stroke-width="2" stroke-miterlimit="10" width="83.355" height="155.824"/>
		</g>
	</g>
	<rect x="93.886" y="58.729" fill="#404041" stroke="#FFFFFF" stroke-miterlimit="10" width="83.355" height="119.419"/>
	<g>
		<rect x="98.762" y="63.222" fill="#929497" width="73.603" height="11.771"/>
	</g>
	<g>
		<line fill="none" stroke="#58595B" stroke-miterlimit="10" x1="127.876" y1="46.813" x2="143.251" y2="46.813"/>
		<line fill="none" stroke="#58595B" stroke-miterlimit="10" x1="127.876" y1="50.063" x2="143.251" y2="50.063"/>
		<line fill="none" stroke="#58595B" stroke-miterlimit="10" x1="127.876" y1="53.063" x2="143.251" y2="53.063"/>
	</g>
	<path fill="#67A3AB" d="M155.224,88.91c-3.032,0-5.492,2.46-5.492,5.492c0,1.48,0.593,2.817,1.545,3.804l-6.371,8.752
		c-0.222-0.029-0.436-0.068-0.665-0.068c-1.126,0-2.17,0.343-3.043,0.922l-6.384-4.787c0.163-0.518,0.274-1.055,0.274-1.627
		c0-3.032-2.46-5.492-5.492-5.492s-5.492,2.46-5.492,5.492c0,1.123,0.341,2.17,0.923,3.039l-4.787,6.386
		c-0.518-0.161-1.057-0.272-1.627-0.272c-3.034,0-5.492,2.46-5.492,5.492s2.458,5.492,5.492,5.492s5.492-2.46,5.492-5.492
		c0-1.126-0.341-2.17-0.922-3.043l4.789-6.382c0.517,0.161,1.055,0.272,1.625,0.272c1.124,0,2.17-0.343,3.041-0.923l6.384,4.787
		c-0.161,0.518-0.272,1.058-0.272,1.627c0,3.032,2.46,5.492,5.492,5.492c3.032,0,5.492-2.46,5.492-5.492
		c0-1.48-0.59-2.817-1.541-3.804l6.368-8.752c0.222,0.029,0.436,0.068,0.665,0.068c3.032,0,5.492-2.46,5.492-5.492
		C160.716,91.37,158.256,88.91,155.224,88.91z M118.613,117.873c-1.012,0-1.831-0.819-1.831-1.831s0.819-1.831,1.831-1.831
		c1.012,0,1.831,0.819,1.831,1.831S119.625,117.873,118.613,117.873z M129.596,103.228c-1.012,0-1.831-0.819-1.831-1.831
		c0-1.012,0.819-1.831,1.831-1.831s1.831,0.819,1.831,1.831C131.427,102.41,130.608,103.228,129.596,103.228z M144.241,114.212
		c-1.012,0-1.831-0.819-1.831-1.831s0.819-1.831,1.831-1.831c1.012,0,1.831,0.819,1.831,1.831S145.253,114.212,144.241,114.212z
		 M155.224,96.232c-1.012,0-1.831-0.819-1.831-1.831s0.819-1.831,1.831-1.831s1.831,0.819,1.831,1.831
		S156.236,96.232,155.224,96.232z"/>
	<g>
		<rect x="104.624" y="154.203" fill="#67A3AB" width="6.494" height="14.82"/>
		<rect x="114.614" y="151.498" fill="#67A3AB" width="6.494" height="17.525"/>
		<rect x="124.605" y="137.718" fill="#ED3325" width="6.494" height="31.305"/>
		<rect x="104.624" y="137.718" fill="none" stroke="#757575" stroke-miterlimit="10" width="6.494" height="31.305"/>
		<rect x="134.111" y="145.538" fill="#67A3AB" width="6.494" height="23.485"/>
		<rect x="134.111" y="137.718" fill="none" stroke="#757575" stroke-miterlimit="10" width="6.494" height="31.305"/>
		<rect x="143.897" y="155.575" fill="#67A3AB" width="6.494" height="13.448"/>
		<rect x="143.897" y="137.718" fill="none" stroke="#757575" stroke-miterlimit="10" width="6.494" height="31.305"/>
		<rect x="114.614" y="137.718" fill="none" stroke="#757575" stroke-miterlimit="10" width="6.494" height="31.305"/>
	</g>
	<g>
		<rect x="153.594" y="154.203" fill="#67A3AB" width="6.494" height="14.82"/>
		<rect x="163.201" y="137.718" fill="#ED3325" width="6.494" height="31.305"/>
		<rect x="153.594" y="137.718" fill="none" stroke="#757575" stroke-miterlimit="10" width="6.494" height="31.305"/>
	</g>
	<polygon fill="#FFFFFF" points="161.011,68.285 164.201,71.475 167.391,68.285 	"/>
</g>
<g id="Bubbles">
</g>
</svg>
