<?xml version="1.0" encoding="utf-8"?>
<!-- Generator: Adobe Illustrator 17.1.0, SVG Export Plug-In . SVG Version: 6.00 Build 0)  -->
<!DOCTYPE svg PUBLIC "-//W3C//DTD SVG 1.1//EN" "http://www.w3.org/Graphics/SVG/1.1/DTD/svg11.dtd">
<svg version="1.1" xmlns="http://www.w3.org/2000/svg" xmlns:xlink="http://www.w3.org/1999/xlink" x="0px" y="0px"
	 viewBox="0 0 263.089 257.314" enable-background="new 0 0 263.089 257.314" xml:space="preserve">
<g id="Layer_1">
</g>
<g id="Layer_2">
</g>
<g id="Phase_3">
	<polygon fill="#FFFFFF" stroke="#929497" stroke-width="2" stroke-miterlimit="10" points="135.89,192.391 50.057,175.724 
		50.057,50.391 135.89,70.391 	"/>
	<polygon fill="#FFFFFF" stroke="#929497" stroke-width="2" stroke-miterlimit="10" points="134.807,192.391 220.64,174.057 
		220.64,50.391 134.807,70.391 	"/>
	<line fill="none" stroke="#929497" stroke-width="2" stroke-miterlimit="10" x1="61.557" y1="68.724" x2="124.891" y2="82.724"/>
	<line fill="none" stroke="#929497" stroke-width="2" stroke-miterlimit="10" x1="61.557" y1="78.724" x2="124.891" y2="92.724"/>
	<line fill="none" stroke="#929497" stroke-width="2" stroke-miterlimit="10" x1="61.557" y1="88.724" x2="124.891" y2="102.724"/>
	<line fill="none" stroke="#929497" stroke-width="2" stroke-miterlimit="10" x1="61.557" y1="98.724" x2="124.891" y2="112.724"/>
	<line fill="none" stroke="#929497" stroke-width="2" stroke-miterlimit="10" x1="61.557" y1="108.724" x2="124.891" y2="122.724"/>
	<line fill="none" stroke="#929497" stroke-width="2" stroke-miterlimit="10" x1="61.557" y1="118.724" x2="124.891" y2="132.724"/>
	<line fill="none" stroke="#929497" stroke-width="2" stroke-miterlimit="10" x1="61.557" y1="128.724" x2="124.891" y2="142.724"/>
	<line fill="none" stroke="#929497" stroke-width="2" stroke-miterlimit="10" x1="61.557" y1="138.724" x2="124.891" y2="152.724"/>
	<line fill="none" stroke="#929497" stroke-width="2" stroke-miterlimit="10" x1="61.557" y1="148.724" x2="124.891" y2="162.724"/>
	<line fill="none" stroke="#929497" stroke-width="2" stroke-miterlimit="10" x1="61.557" y1="158.724" x2="124.891" y2="172.724"/>
	<polygon fill="#ED3325" points="171.891,100.724 209.891,92.724 209.891,64.724 171.891,72.724 	"/>
	<polygon fill="#67A3AB" points="145.557,141.657 209.891,128.657 209.891,165.724 145.557,178.724 	"/>
	<polygon fill="#67A3AB" points="145.557,116.724 209.891,103.724 209.891,122.791 145.557,135.791 	"/>
</g>
<g id="Bubbles">
</g>
</svg>
