<?xml version="1.0" encoding="utf-8"?>
<!-- Generator: Adobe Illustrator 17.1.0, SVG Export Plug-In . SVG Version: 6.00 Build 0)  -->
<!DOCTYPE svg PUBLIC "-//W3C//DTD SVG 1.1//EN" "http://www.w3.org/Graphics/SVG/1.1/DTD/svg11.dtd">
<svg version="1.1" xmlns="http://www.w3.org/2000/svg" xmlns:xlink="http://www.w3.org/1999/xlink" x="0px" y="0px"
	 viewBox="0 0 263.089 257.314" enable-background="new 0 0 263.089 257.314" xml:space="preserve">
<g id="Layer_1">
</g>
<g id="Layer_2">
</g>
<g id="Phase_3">
	<g>
		<g>
			<g>
				<g>
					<g>
						<path fill="none" stroke="#CECECE" stroke-width="0.5" stroke-miterlimit="10" d="M94.243,199.132"/>
					</g>
				</g>
			</g>
			<g>
				<g>
					<g>
						<line fill="none" stroke="#757575" stroke-miterlimit="10" x1="131.168" y1="76.169" x2="131.265" y2="115.581"/>
						<line fill="none" stroke="#757575" stroke-miterlimit="10" x1="160.194" y1="88.906" x2="102.239" y2="142.096"/>
						<line fill="none" stroke="#757575" stroke-miterlimit="10" x1="170.535" y1="115.581" x2="91.898" y2="115.581"/>
						<line fill="none" stroke="#757575" stroke-miterlimit="10" x1="158.877" y1="143.464" x2="131.129" y2="115.581"/>
						<line fill="none" stroke="#757575" stroke-miterlimit="10" x1="131.168" y1="116.085" x2="131.265" y2="135.791"/>
						<line fill="none" stroke="#757575" stroke-miterlimit="10" x1="131.168" y1="149.083" x2="131.265" y2="168.789"/>
						<line fill="none" stroke="#757575" stroke-miterlimit="10" x1="117.127" y1="102.22" x2="131.129" y2="116.085"/>
						<line fill="none" stroke="#757575" stroke-miterlimit="10" x1="94.127" y1="79.22" x2="108.129" y2="93.085"/>
					</g>
				</g>
			</g>
		</g>
		<g>
			<circle fill="none" stroke="#757575" stroke-miterlimit="10" cx="131.104" cy="61.477" r="14.724"/>
			<g>
				<path fill="#ED635F" d="M124.96,59.012c0,0,0,2.036,0,2.528c0,0.999,2.749,1.809,6.144,1.809c3.395,0,6.144-0.81,6.144-1.809
					c0-0.492,0-2.528,0-2.528s-1.611,1.524-6.144,1.524C125.971,60.536,124.96,59.012,124.96,59.012z"/>
				<path fill="#ED635F" d="M124.96,63.362c0,0,0,2.921,0,3.413c0,0.999,2.749,1.809,6.144,1.809c3.395,0,6.144-0.81,6.144-1.809
					c0-0.492,0-3.413,0-3.413s-1.611,1.524-6.144,1.524C125.971,64.886,124.96,63.362,124.96,63.362z"/>
				<path fill="#ED635F" d="M131.104,52.847c-3.394,0-6.144,0.81-6.144,1.809c0,0.065,0,0.15,0,0.248v0.223c0,0.424,0,0.989,0,1.441
					c0,0.257,0,0.478,0,0.616c0,0.999,2.749,1.809,6.144,1.809c3.395,0,6.144-0.81,6.144-1.809c0-0.492,0-2.036,0-2.528
					C137.248,53.657,134.499,52.847,131.104,52.847z"/>
			</g>
		</g>
		<g>
			<circle fill="none" stroke="#757575" stroke-miterlimit="10" cx="170.29" cy="77.87" r="14.724"/>
			<g>
				<path fill="#ED635F" d="M164.147,75.406c0,0,0,2.036,0,2.528c0,0.999,2.749,1.809,6.144,1.809c3.395,0,6.144-0.81,6.144-1.809
					c0-0.492,0-2.528,0-2.528s-1.611,1.524-6.144,1.524C165.157,76.929,164.147,75.406,164.147,75.406z"/>
				<path fill="#ED635F" d="M164.147,79.755c0,0,0,2.921,0,3.413c0,0.999,2.749,1.809,6.144,1.809c3.395,0,6.144-0.81,6.144-1.809
					c0-0.492,0-3.413,0-3.413s-1.611,1.524-6.144,1.524C165.157,81.279,164.147,79.755,164.147,79.755z"/>
				<path fill="#ED635F" d="M170.29,69.24c-3.394,0-6.144,0.81-6.144,1.809c0,0.065,0,0.15,0,0.248v0.223c0,0.424,0,0.989,0,1.441
					c0,0.257,0,0.478,0,0.616c0,0.999,2.749,1.809,6.144,1.809c3.395,0,6.144-0.81,6.144-1.809c0-0.492,0-2.036,0-2.528
					C176.434,70.05,173.685,69.24,170.29,69.24z"/>
			</g>
		</g>
		<g>
			<circle fill="none" stroke="#757575" stroke-miterlimit="10" cx="185.259" cy="115.581" r="14.724"/>
			<g>
				<path fill="#CC2723" d="M179.115,113.117c0,0,0,2.036,0,2.528c0,0.999,2.749,1.809,6.144,1.809c3.395,0,6.144-0.81,6.144-1.809
					c0-0.492,0-2.528,0-2.528s-1.611,1.524-6.144,1.524C180.126,114.641,179.115,113.117,179.115,113.117z"/>
				<path fill="#CC2723" d="M179.115,117.466c0,0,0,2.921,0,3.413c0,0.999,2.749,1.809,6.144,1.809c3.395,0,6.144-0.81,6.144-1.809
					c0-0.492,0-3.413,0-3.413s-1.611,1.524-6.144,1.524C180.126,118.99,179.115,117.466,179.115,117.466z"/>
				<path fill="#CC2723" d="M185.259,106.951c-3.394,0-6.144,0.81-6.144,1.809c0,0.065,0,0.15,0,0.248v0.223
					c0,0.424,0,0.989,0,1.441c0,0.257,0,0.478,0,0.616c0,0.999,2.749,1.809,6.144,1.809c3.395,0,6.144-0.81,6.144-1.809
					c0-0.492,0-2.036,0-2.528C191.403,107.761,188.654,106.951,185.259,106.951z"/>
			</g>
		</g>
		<g>
			<circle fill="none" stroke="#757575" stroke-miterlimit="10" cx="169.633" cy="153.28" r="14.724"/>
			<g>
				<path fill="#AD4242" d="M163.489,150.816c0,0,0,2.036,0,2.528c0,0.999,2.749,1.809,6.144,1.809c3.395,0,6.144-0.81,6.144-1.809
					c0-0.492,0-2.528,0-2.528s-1.611,1.524-6.144,1.524C164.499,152.339,163.489,150.816,163.489,150.816z"/>
				<path fill="#AD4242" d="M163.489,155.165c0,0,0,2.921,0,3.413c0,0.999,2.749,1.809,6.144,1.809c3.395,0,6.144-0.81,6.144-1.809
					c0-0.492,0-3.413,0-3.413s-1.611,1.524-6.144,1.524C164.499,156.689,163.489,155.165,163.489,155.165z"/>
				<path fill="#AD4242" d="M169.633,144.65c-3.394,0-6.144,0.81-6.144,1.809c0,0.065,0,0.15,0,0.248v0.223c0,0.424,0,0.989,0,1.441
					c0,0.257,0,0.478,0,0.616c0,0.999,2.749,1.809,6.144,1.809c3.395,0,6.144-0.81,6.144-1.809c0-0.492,0-2.036,0-2.528
					C175.777,145.46,173.027,144.65,169.633,144.65z"/>
			</g>
		</g>
		<g>
			<circle fill="none" stroke="#757575" stroke-miterlimit="10" cx="131.104" cy="183.557" r="14.724"/>
			<g>
				<path fill="#ED635F" d="M124.96,181.093c0,0,0,2.036,0,2.528c0,0.999,2.749,1.809,6.144,1.809c3.395,0,6.144-0.81,6.144-1.809
					c0-0.492,0-2.528,0-2.528s-1.611,1.524-6.144,1.524C125.971,182.616,124.96,181.093,124.96,181.093z"/>
				<path fill="#ED635F" d="M124.96,185.442c0,0,0,2.921,0,3.413c0,0.999,2.749,1.809,6.144,1.809c3.395,0,6.144-0.81,6.144-1.809
					c0-0.492,0-3.413,0-3.413s-1.611,1.524-6.144,1.524C125.971,186.966,124.96,185.442,124.96,185.442z"/>
				<path fill="#ED635F" d="M131.104,174.927c-3.394,0-6.144,0.81-6.144,1.809c0,0.065,0,0.15,0,0.248v0.223
					c0,0.424,0,0.989,0,1.441c0,0.257,0,0.478,0,0.616c0,0.999,2.749,1.809,6.144,1.809c3.395,0,6.144-0.81,6.144-1.809
					c0-0.492,0-2.036,0-2.528C137.248,175.737,134.499,174.927,131.104,174.927z"/>
			</g>
		</g>
		<g>
			<circle fill="none" stroke="#757575" stroke-miterlimit="10" cx="91.898" cy="152.267" r="14.724"/>
			<g>
				<path fill="#AD4242" d="M85.754,149.803c0,0,0,2.036,0,2.528c0,0.999,2.749,1.809,6.144,1.809c3.395,0,6.144-0.81,6.144-1.809
					c0-0.492,0-2.528,0-2.528s-1.611,1.524-6.144,1.524C86.765,151.326,85.754,149.803,85.754,149.803z"/>
				<path fill="#AD4242" d="M85.754,154.152c0,0,0,2.921,0,3.413c0,0.999,2.749,1.809,6.144,1.809c3.395,0,6.144-0.81,6.144-1.809
					c0-0.492,0-3.413,0-3.413s-1.611,1.524-6.144,1.524C86.765,155.676,85.754,154.152,85.754,154.152z"/>
				<path fill="#AD4242" d="M91.898,143.637c-3.394,0-6.144,0.81-6.144,1.809c0,0.065,0,0.15,0,0.248v0.223c0,0.424,0,0.989,0,1.441
					c0,0.257,0,0.478,0,0.616c0,0.999,2.749,1.809,6.144,1.809c3.395,0,6.144-0.81,6.144-1.809c0-0.492,0-2.036,0-2.528
					C98.042,144.447,95.293,143.637,91.898,143.637z"/>
			</g>
		</g>
		<g>
			<circle fill="none" stroke="#757575" stroke-miterlimit="10" cx="77.714" cy="115.501" r="14.724"/>
			<g>
				<path fill="#CC2723" d="M71.57,113.037c0,0,0,2.036,0,2.528c0,0.999,2.749,1.809,6.144,1.809c3.395,0,6.144-0.81,6.144-1.809
					c0-0.492,0-2.528,0-2.528s-1.611,1.524-6.144,1.524C72.581,114.56,71.57,113.037,71.57,113.037z"/>
				<path fill="#CC2723" d="M71.57,117.386c0,0,0,2.921,0,3.413c0,0.999,2.749,1.809,6.144,1.809c3.395,0,6.144-0.81,6.144-1.809
					c0-0.492,0-3.413,0-3.413s-1.611,1.524-6.144,1.524C72.581,118.91,71.57,117.386,71.57,117.386z"/>
				<path fill="#CC2723" d="M77.714,106.871c-3.394,0-6.144,0.81-6.144,1.809c0,0.065,0,0.15,0,0.248v0.223c0,0.424,0,0.989,0,1.441
					c0,0.257,0,0.478,0,0.616c0,0.999,2.749,1.809,6.144,1.809c3.395,0,6.144-0.81,6.144-1.809c0-0.492,0-2.036,0-2.528
					C83.858,107.681,81.109,106.871,77.714,106.871z"/>
			</g>
		</g>
		<g>
			<circle fill="none" stroke="#757575" stroke-miterlimit="10" cx="83.858" cy="68.584" r="14.724"/>
			<g>
				<path fill="#ED635F" d="M77.714,66.119c0,0,0,2.036,0,2.528c0,0.999,2.749,1.809,6.144,1.809c3.395,0,6.144-0.81,6.144-1.809
					c0-0.492,0-2.528,0-2.528s-1.611,1.524-6.144,1.524C78.725,67.643,77.714,66.119,77.714,66.119z"/>
				<path fill="#ED635F" d="M77.714,70.469c0,0,0,2.921,0,3.413c0,0.999,2.749,1.809,6.144,1.809c3.395,0,6.144-0.81,6.144-1.809
					c0-0.492,0-3.413,0-3.413s-1.611,1.524-6.144,1.524C78.725,71.992,77.714,70.469,77.714,70.469z"/>
				<path fill="#ED635F" d="M83.858,59.954c-3.394,0-6.144,0.81-6.144,1.809c0,0.065,0,0.15,0,0.248v0.223c0,0.424,0,0.989,0,1.441
					c0,0.257,0,0.478,0,0.616c0,0.999,2.749,1.809,6.144,1.809c3.395,0,6.144-0.81,6.144-1.809c0-0.492,0-2.036,0-2.528
					C90.002,60.764,87.253,59.954,83.858,59.954z"/>
			</g>
		</g>
	</g>
</g>
<g id="Bubbles">
</g>
</svg>
