<?xml version="1.0" encoding="utf-8"?>
<!-- Generator: Adobe Illustrator 17.1.0, SVG Export Plug-In . SVG Version: 6.00 Build 0)  -->
<!DOCTYPE svg PUBLIC "-//W3C//DTD SVG 1.1//EN" "http://www.w3.org/Graphics/SVG/1.1/DTD/svg11.dtd">
<svg version="1.1" xmlns="http://www.w3.org/2000/svg" xmlns:xlink="http://www.w3.org/1999/xlink" x="0px" y="0px"
	 viewBox="0 0 263.089 257.314" enable-background="new 0 0 263.089 257.314" xml:space="preserve">
<g id="Layer_1">
</g>
<g id="Layer_2">
</g>
<g id="Phase_3">
	<g>
		<path fill="#58595B" d="M129.918,172.183H84.214V77.279h41.158v26.632h29.052v15.064h4.841v-18.549l-30.533-27.989H79.372v104.588
			h50.546V172.183z M130.213,80.362l20.409,18.706h-20.409V80.362z"/>
		<polygon fill="#FFFFFF" stroke="#929497" stroke-width="2" stroke-miterlimit="10" points="160.132,176.776 79.372,176.776 
			79.372,72.437 128.372,72.437 160.132,100.802 		"/>
		
			<line fill="none" stroke="#929497" stroke-width="2" stroke-miterlimit="10" x1="128.733" y1="72.437" x2="128.733" y2="101.053"/>
		
			<line fill="none" stroke="#929497" stroke-width="2" stroke-miterlimit="10" x1="127.789" y1="100.803" x2="160.132" y2="100.803"/>
	</g>
	<g>
		<path fill="#58595B" d="M162.911,193.176h-45.704V98.272h41.158v26.632h29.052v15.064h4.841v-18.549L161.726,93.43h-49.361
			v104.588h50.546V193.176z M163.206,101.355l20.409,18.706h-20.409V101.355z"/>
		<polygon fill="#FFFFFF" stroke="#929497" stroke-width="2" stroke-miterlimit="10" points="193.125,197.769 112.365,197.769 
			112.365,93.43 161.365,93.43 193.125,121.796 		"/>
		<line fill="none" stroke="#929497" stroke-width="2" stroke-miterlimit="10" x1="161.726" y1="93.43" x2="161.726" y2="122.046"/>
		
			<line fill="none" stroke="#929497" stroke-width="2" stroke-miterlimit="10" x1="160.782" y1="121.796" x2="193.125" y2="121.796"/>
	</g>
	<g>
		<g>
			<path fill="#67A3AB" d="M145.264,131.022c-8.038,0-14.577,6.539-14.577,14.577c0,8.037,6.539,14.575,14.577,14.575
				c8.037,0,14.575-6.538,14.575-14.575C159.839,137.561,153.301,131.022,145.264,131.022z M145.264,158.21
				c-6.955,0-12.613-5.657-12.613-12.611c0-6.955,5.658-12.613,12.613-12.613c6.954,0,12.611,5.658,12.611,12.613
				C157.874,152.553,152.217,158.21,145.264,158.21z"/>
			<path fill="#67A3AB" d="M136.286,149.744c4.245,6.674,11.185,4.116,11.255,4.09c0.391-0.149,0.632-0.523,0.632-0.918
				c0-0.117-0.021-0.235-0.064-0.351c-0.194-0.507-0.761-0.759-1.269-0.567c-0.223,0.085-5.501,2.026-8.896-3.309
				c-0.292-0.458-0.898-0.593-1.357-0.302C136.13,148.678,135.997,149.283,136.286,149.744z"/>
		</g>
		<path fill="#67A3AB" d="M145.265,126.903c-10.309,0-18.696,8.387-18.696,18.696c0,10.308,8.387,18.694,18.696,18.694
			c2.517,0,4.915-0.507,7.109-1.413l14.397,14.398c1.341,1.34,3.13,2.079,5.036,2.079c1.907,0,3.695-0.739,5.036-2.08
			c1.34-1.34,2.079-3.129,2.079-5.035c-0.001-1.906-0.739-3.694-2.08-5.034l-14.349-14.349c0.944-2.233,1.467-4.687,1.467-7.259
			C163.959,135.29,155.573,126.903,145.265,126.903z M176.466,172.242c-0.103,1.246-0.483,2.424-1.361,3.301
			c-0.877,0.877-2.055,1.226-3.299,1.36c-1.512,0.163-2.907-0.966-3.783-1.843l6.599-6.599
			C175.5,169.337,176.609,170.509,176.466,172.242z M172.909,166.656l-6.663,6.663l-11.118-11.118l6.663-6.663L172.909,166.656z
			 M161.502,145.599c0.001,8.954-7.284,16.238-16.238,16.238c-8.955,0-16.24-7.285-16.24-16.238c0-8.955,7.286-16.24,16.24-16.24
			C154.217,129.359,161.502,136.644,161.502,145.599z"/>
	</g>
</g>
<g id="Bubbles">
</g>
</svg>
