<?xml version="1.0" encoding="utf-8"?>
<!-- Generator: Adobe Illustrator 17.1.0, SVG Export Plug-In . SVG Version: 6.00 Build 0)  -->
<!DOCTYPE svg PUBLIC "-//W3C//DTD SVG 1.1//EN" "http://www.w3.org/Graphics/SVG/1.1/DTD/svg11.dtd">
<svg version="1.1" xmlns="http://www.w3.org/2000/svg" xmlns:xlink="http://www.w3.org/1999/xlink" x="0px" y="0px"
	 viewBox="0 0 263.089 257.314" enable-background="new 0 0 263.089 257.314" xml:space="preserve">
<g id="Layer_1">
</g>
<g id="Layer_2">
</g>
<g id="Phase_3">
	<g>
		<g>
			<path fill="#FFFFFF" d="M210.996,165.57l4.054,0.99c-0.16,0.657-4.114,16.21-20.312,28.368l-2.505-3.339
				C207.248,180.319,210.96,165.716,210.996,165.57z"/>
		</g>
		<g>
			<path fill="#FFFFFF" d="M223.217,153.934l4.171-0.138c0.022,0.676,0.401,16.719-11.926,32.788l-3.312-2.541
				C223.578,169.147,223.222,154.084,223.217,153.934z"/>
		</g>
	</g>
	<g>
		<g>
			<path fill="#FFFFFF" d="M65.354,68.858l-3.66-2.007c0.325-0.593,8.173-14.591,26.967-22.138l1.555,3.874
				C72.795,55.584,65.427,68.727,65.354,68.858z"/>
		</g>
		<g>
			<path fill="#FFFFFF" d="M51.098,75.988l-4.036-1.062c0.172-0.654,4.403-16.134,20.816-28l2.445,3.383
				C55.108,61.309,51.136,75.844,51.098,75.988z"/>
		</g>
	</g>
	<g>
		<circle fill="#FFFFFF" cx="131.561" cy="126.793" r="74.943"/>
		<g>
			<path fill="#67A2AB" d="M131.129,204.182c-42.894,0-77.791-34.896-77.791-77.791c0-42.894,34.898-77.791,77.791-77.791
				c42.896,0,77.791,34.898,77.791,77.791C208.921,169.286,174.023,204.182,131.129,204.182z M131.129,53.666
				c-40.1,0-72.726,32.624-72.726,72.724c0,40.102,32.626,72.726,72.726,72.726c40.102,0,72.726-32.624,72.726-72.726
				C203.856,86.291,171.232,53.666,131.129,53.666z"/>
		</g>
		<g>
			<path d="M132.428,195.622l-0.188-10.13c1.557-0.031,3.125-0.119,4.66-0.27l0.975,10.088
				C136.079,195.483,134.246,195.587,132.428,195.622z M123.339,195.2c-1.805-0.203-3.621-0.478-5.395-0.818l1.913-9.953
				c1.517,0.294,3.07,0.529,4.614,0.701L123.339,195.2z M146.853,193.837l-2.283-9.871c1.495-0.347,3.004-0.761,4.486-1.234
				l3.077,9.655C150.39,192.944,148.611,193.433,146.853,193.837z M109.133,192.066c-1.723-0.577-3.444-1.23-5.114-1.94l3.968-9.325
				c1.427,0.606,2.895,1.163,4.366,1.657L109.133,192.066z M160.602,189.062l-4.309-9.17c1.391-0.657,2.78-1.378,4.127-2.15
				l5.032,8.796C163.871,187.447,162.236,188.295,160.602,189.062z M95.893,186.008c-1.557-0.922-3.099-1.92-4.585-2.968
				l5.833-8.285c1.27,0.894,2.588,1.747,3.917,2.535L95.893,186.008z M173.032,181.518l-6.133-8.064
				c1.232-0.938,2.442-1.935,3.596-2.968l6.753,7.553C175.894,179.25,174.476,180.418,173.032,181.518z M84.221,177.328
				c-1.334-1.23-2.632-2.526-3.866-3.853l7.427-6.894c1.055,1.137,2.165,2.245,3.304,3.296L84.221,177.328z M183.624,171.545
				l-7.686-6.602c1.02-1.186,1.995-2.418,2.906-3.658l8.173,5.99C185.956,168.727,184.812,170.162,183.624,171.545z M74.616,166.411
				c-1.046-1.473-2.048-3.012-2.982-4.574l8.701-5.196c0.794,1.336,1.654,2.648,2.544,3.906L74.616,166.411z M191.905,159.59
				l-8.887-4.868c0.741-1.354,1.438-2.756,2.075-4.178l9.245,4.147C193.595,156.354,192.777,158.002,191.905,159.59z
				 M67.496,153.733c-0.717-1.663-1.374-3.377-1.957-5.094l9.595-3.26c0.498,1.466,1.059,2.931,1.672,4.348L67.496,153.733z
				 M197.51,146.151l-9.714-2.889c0.44-1.486,0.827-3.004,1.15-4.517l9.911,2.108C198.479,142.625,198.028,144.408,197.51,146.151z
				 M63.194,139.834c-0.349-1.781-0.635-3.596-0.843-5.399l10.066-1.161c0.177,1.535,0.418,3.088,0.717,4.605L63.194,139.834z
				 M200.158,131.852l-10.099-0.798c0.119-1.528,0.181-3.099,0.181-4.66h10.132C200.372,128.217,200.297,130.053,200.158,131.852z
				 M72.028,125.506l-10.132-0.15c0.029-1.809,0.124-3.645,0.292-5.45l10.092,0.94C72.134,122.387,72.05,123.955,72.028,125.506z
				 M189.939,120.399c-0.153-1.542-0.374-3.092-0.648-4.618l9.971-1.805c0.323,1.787,0.579,3.607,0.761,5.41L189.939,120.399z
				 M73.503,113.173l-9.88-2.256c0.405-1.769,0.883-3.546,1.429-5.277l9.668,3.035C74.257,110.151,73.846,111.664,73.503,113.173z
				 M187.4,108.245c-0.469-1.462-1.006-2.933-1.601-4.371l9.367-3.866c0.695,1.69,1.329,3.417,1.882,5.14L187.4,108.245z
				 M77.533,101.43l-9.181-4.286c0.767-1.639,1.61-3.273,2.504-4.855l8.816,4.994C78.906,98.635,78.183,100.03,77.533,101.43z
				 M182.372,96.907c-0.776-1.343-1.612-2.67-2.484-3.941l8.347-5.74c1.026,1.491,2.006,3.046,2.913,4.62L182.372,96.907z
				 M83.94,90.792l-8.082-6.113c1.09-1.442,2.256-2.864,3.457-4.222l7.584,6.722C85.869,88.339,84.874,89.555,83.94,90.792z
				 M175.076,86.859c-1.033-1.148-2.128-2.272-3.258-3.344l6.98-7.345c1.318,1.252,2.599,2.568,3.809,3.913L175.076,86.859z
				 M92.427,81.714l-6.638-7.657c1.367-1.186,2.802-2.333,4.262-3.411l6.018,8.15C94.82,79.719,93.595,80.701,92.427,81.714z
				 M165.844,78.545c-1.25-0.911-2.555-1.783-3.88-2.592l5.295-8.639c1.548,0.949,3.081,1.971,4.545,3.039L165.844,78.545z
				 M102.606,74.606l-4.897-8.872c1.59-0.876,3.234-1.701,4.884-2.446l4.18,9.23C105.364,73.155,103.964,73.858,102.606,74.606z
				 M155.081,72.334c-1.407-0.626-2.864-1.203-4.331-1.721l3.362-9.559c1.721,0.606,3.433,1.285,5.087,2.022L155.081,72.334z
				 M114.043,69.788l-2.926-9.701c1.73-0.52,3.508-0.982,5.291-1.369l2.152,9.902C117.036,68.952,115.516,69.344,114.043,69.788z
				 M143.263,68.528c-1.511-0.316-3.059-0.575-4.601-0.77l1.281-10.053c1.807,0.23,3.619,0.533,5.39,0.905L143.263,68.528z
				 M126.239,67.481l-0.827-10.097c1.798-0.148,3.636-0.228,5.454-0.234l0.042,10.134C129.349,67.289,127.776,67.355,126.239,67.481
				z"/>
		</g>
		<path d="M135.31,77.167c0-1.154-0.936-2.09-2.09-2.09l0,0c-1.154,0-2.09,0.936-2.09,2.09v53.988c0,1.154,0.936,2.09,2.09,2.09l0,0
			c1.154,0,2.09-0.936,2.09-2.09V77.167z"/>
		<path d="M106.766,105.961c0.72-0.72,1.887-0.72,2.607,0l25.98,25.98c0.72,0.72,0.72,1.887,0,2.607l0,0
			c-0.72,0.72-1.887,0.72-2.607,0l-25.98-25.98C106.047,107.848,106.047,106.681,106.766,105.961L106.766,105.961z"/>
		<circle fill="#67A2AB" cx="133.22" cy="133.245" r="7.988"/>
	</g>
</g>
<g id="Bubbles">
</g>
</svg>
