<?xml version="1.0" encoding="utf-8"?>
<!-- Generator: Adobe Illustrator 17.1.0, SVG Export Plug-In . SVG Version: 6.00 Build 0)  -->
<!DOCTYPE svg PUBLIC "-//W3C//DTD SVG 1.1//EN" "http://www.w3.org/Graphics/SVG/1.1/DTD/svg11.dtd">
<svg version="1.1" xmlns="http://www.w3.org/2000/svg" xmlns:xlink="http://www.w3.org/1999/xlink" x="0px" y="0px"
	 viewBox="0 0 263.089 257.314" enable-background="new 0 0 263.089 257.314" xml:space="preserve">
<g id="Layer_1">
</g>
<g id="Layer_2">
</g>
<g id="Phase_3">
	<path fill="none" stroke="#67A3AB" stroke-width="3" stroke-miterlimit="10" stroke-dasharray="5,3" d="M131.545,143.512
		l38.851,39.098c6.402,6.402,16.79,6.405,23.194,0.001c6.41-6.41,6.404-16.791,0-23.195l-38.851-39.098L131.545,143.512z
		 M185.034,164.55c1.355,3.58-0.467,7.568-4.044,8.892c-3.573,1.342-7.541-0.489-8.893-4.042c-1.335-3.565,0.474-7.552,4.047-8.895
		C179.737,159.189,183.701,160.977,185.034,164.55z"/>
	<path fill="#67A3AB" d="M97.147,110.152l26.596,26.144l23.194-23.194l-26.597-26.145c2.491-6.228,3.084-12.629,1.661-18.193
		c-1.153-4.974-3.76-9.757-8.015-14.011c-9.377-9.38-22.796-12.253-34.646-8.65L97.956,64.73l-4.868,18.17l-18.164,4.871
		L56.297,69.144c-3.612,11.859-0.731,25.27,8.653,34.655c4.198,4.198,8.909,6.792,13.824,7.97
		C84.372,113.252,90.836,112.673,97.147,110.152z"/>
</g>
<g id="Bubbles">
</g>
</svg>
