<?xml version="1.0" encoding="utf-8"?>
<!-- Generator: Adobe Illustrator 17.1.0, SVG Export Plug-In . SVG Version: 6.00 Build 0)  -->
<!DOCTYPE svg PUBLIC "-//W3C//DTD SVG 1.1//EN" "http://www.w3.org/Graphics/SVG/1.1/DTD/svg11.dtd">
<svg version="1.1" xmlns="http://www.w3.org/2000/svg" xmlns:xlink="http://www.w3.org/1999/xlink" x="0px" y="0px"
	 viewBox="0 0 263.089 257.314" enable-background="new 0 0 263.089 257.314" xml:space="preserve">
<g id="Layer_1">
</g>
<g id="Layer_2">
</g>
<g id="Phase_3">
	<polygon fill="#E6E7E8" stroke="#58595B" stroke-width="2" stroke-miterlimit="10" points="86.97,201.97 91.471,216.037 
		174.743,216.037 179.619,201.732 	"/>
	<polygon fill="#E6E7E8" stroke="#58595B" stroke-width="2" stroke-miterlimit="10" points="86.496,129.389 63.057,111.384 
		71.497,150.178 86.496,162.96 	"/>
	<polygon fill="#E6E7E8" stroke="#58595B" stroke-width="2" stroke-miterlimit="10" points="180.296,129.389 203.734,111.384 
		195.294,150.178 180.296,162.96 	"/>
	<g>
		<g>
			
				<rect x="86.496" y="129.389" fill="#FFFFFF" stroke="#58595B" stroke-width="2" stroke-miterlimit="10" width="93.8" height="72.342"/>
		</g>
	</g>
	
		<line fill="#FFFFFF" stroke="#58595B" stroke-width="2" stroke-miterlimit="10" x1="133.396" y1="201.731" x2="133.396" y2="216.037"/>
	<rect x="151.766" y="138.492" fill="#ED3325" width="16.501" height="16.391"/>
	<g>
		<path fill="#67A3AB" d="M109.584,90.206l-4.391-7.805c-2.484,1.407-4.161,4.072-4.161,7.131c0,4.524,3.668,8.192,8.192,8.192
			s8.192-3.668,8.192-8.192c0-1.188-0.255-2.315-0.709-3.334L109.584,90.206z"/>
		<path fill="#FFFFFF" d="M112.878,64.7H93.722v40.588h31.005V75.562L112.878,64.7z M113.452,67.776l7.92,7.259h-7.92V67.776z
			 M95.601,103.409V66.58h15.972v10.335h11.275v26.495H95.601z"/>
	</g>
	<g>
		<path fill="#FFFFFF" d="M146.473,27.677h-19.156v40.588h31.005V38.539L146.473,27.677z M147.047,30.753l7.92,7.259h-7.92V30.753z
			 M129.196,66.386v-36.83h15.972v10.335h11.275v26.495H129.196z"/>
		<g>
			<rect x="131.63" y="42.386" fill="#67A3AB" width="17.723" height="2.113"/>
		</g>
		<g>
			<rect x="131.63" y="46.887" fill="#67A3AB" width="22.084" height="2.113"/>
		</g>
		<g>
			<rect x="131.63" y="51.388" fill="#67A3AB" width="11.78" height="2.113"/>
		</g>
		<g>
			<rect x="131.63" y="55.889" fill="#67A3AB" width="22.084" height="2.113"/>
		</g>
		<g>
			<rect x="131.63" y="60.391" fill="#67A3AB" width="16.422" height="2.113"/>
		</g>
	</g>
	<g>
		<path fill="#FFFFFF" d="M152.149,78.528h-19.156v40.588h31.005V89.39L152.149,78.528z M152.724,81.604l7.92,7.259h-7.92V81.604z
			 M134.873,117.237v-36.83h15.972v10.335h11.275v26.495H134.873z"/>
		<g>
			<rect x="138.324" y="98.864" fill="#67A3AB" width="6.078" height="6.078"/>
			<rect x="146.042" y="98.864" fill="#67A3AB" width="6.078" height="6.078"/>
			<rect x="153.524" y="98.864" fill="#67A3AB" width="6.078" height="6.078"/>
		</g>
	</g>
</g>
<g id="Bubbles">
</g>
</svg>
