<?xml version="1.0" encoding="utf-8"?>
<!-- Generator: Adobe Illustrator 17.1.0, SVG Export Plug-In . SVG Version: 6.00 Build 0)  -->
<!DOCTYPE svg PUBLIC "-//W3C//DTD SVG 1.1//EN" "http://www.w3.org/Graphics/SVG/1.1/DTD/svg11.dtd">
<svg version="1.1" xmlns="http://www.w3.org/2000/svg" xmlns:xlink="http://www.w3.org/1999/xlink" x="0px" y="0px"
	 viewBox="0 0 263.089 257.314" enable-background="new 0 0 263.089 257.314" xml:space="preserve">
<g id="Layer_1">
</g>
<g id="Layer_2">
</g>
<g id="Phase_3">
	<g>
		<g>
			<g>
				<path fill="#A6A8AB" d="M135.798,169.789c-26.58,0-48.204-21.624-48.204-48.204s21.624-48.204,48.204-48.204
					c26.58,0,48.204,21.624,48.204,48.204S162.378,169.789,135.798,169.789z M135.798,74.91c-25.737,0-46.675,20.939-46.675,46.676
					c0,25.737,20.939,46.675,46.675,46.675s46.675-20.939,46.675-46.675C182.474,95.849,161.535,74.91,135.798,74.91z"/>
			</g>
			<path fill="#67A3AB" d="M117.213,80.259c0,0-3.566,1.63-6.724,4.585c-3.158,2.955-4.381,4.687-4.381,4.687s1.936,0,2.241,0.611
				s0.713,1.121,0.611,3.057c-0.102,1.936,1.019,5.807,1.426,6.215c0.408,0.408,0.815,2.955,0.102,3.057s-1.936,0.509-2.241,2.14
				c-0.306,1.63-1.936,5.094-1.223,6.826c0.713,1.732,0.204,2.751,1.019,3.464c0.815,0.713,3.057,2.547,4.075,4.483
				s2.853,4.789,3.26,5.094c0.408,0.306,0.408,3.464,3.973,5.502s4.483,0.713,4.687,1.223c0.204,0.509,1.426,1.936,2.751,2.14
				s2.751,1.528,3.362,2.343c0.611,0.815,2.649,2.649,3.566,2.038c0.917-0.611,1.919-0.366,2.08,0.122
				c0.161,0.489,0.987,1.813-0.241,3.138c-1.228,1.324-2.451,3.464-2.043,3.973c0.408,0.509-0.815,1.019,1.324,3.668
				c2.14,2.649,3.973,5.196,5.4,5.502c1.426,0.306,1.019,1.936,1.019,3.26c0,1.324-0.306,3.872-0.611,5.196
				c-0.306,1.324-0.917,3.26-0.408,3.464c0.509,0.204,3.77,0.102,4.687-0.509c0.917-0.611,3.566-2.955,4.381-3.158
				c0.815-0.204,2.241-1.324,3.566-2.343c1.324-1.019,0.611-1.528,1.732-2.853c1.121-1.324,3.362-2.343,4.177-2.853
				c0.815-0.509,1.63-3.158,2.343-4.279c0.713-1.121,1.936-2.751,2.649-3.464c0.713-0.713,0.815-2.751-1.019-2.853
				c-1.834-0.102-5.298-1.121-6.622-1.324c-1.324-0.204-1.732-2.343-1.732-2.751c0-0.408-1.426-1.324-3.158-1.63
				c-1.732-0.306-1.63-1.528-3.77-2.547c-2.14-1.019-3.26-1.019-5.4-1.019s-3.464-0.408-4.075,0.611c-0.611,1.019-1.314,0-2.44,0
				c-1.126,0-2.349,0.815-2.654,0.408c-0.306-0.408-1.426-2.547-1.223-3.158s-0.408-1.019-2.14-1.019s-1.223-1.936-0.815-2.955
				c0.408-1.019-1.426-2.241-2.038-1.019c-0.611,1.223-1.019,1.732-2.343,1.223c-1.324-0.509-2.547,0.713-2.547-2.343
				s0-5.705,1.63-5.807c1.63-0.102,3.158,0,4.075,0c0.917,0,0.509-0.917,1.936-0.917c1.426,0,2.038,0.306,2.445,0.306
				s1.019-0.306,1.223,1.121c0.204,1.426,0.611,3.464,1.426,3.362s1.089-1.528,0.646-3.26c-0.443-1.732-0.765-2.955,0.619-3.566
				c1.384-0.611,2.301-0.917,3.116-2.14s0.306-2.445,0.917-3.26c0.611-0.815,0-1.732,2.14-2.14c2.14-0.408,1.834-0.917,2.445-1.63
				c0.611-0.713,2.649-1.63,3.26-1.528s2.955,0.102,2.445-0.509c-0.509-0.611-1.019-2.343-1.63-2.853
				c-0.611-0.509-1.528-1.426-0.102-1.426c1.426,0,2.14,0.204,3.464,0.204c1.324,0,3.362-0.102,2.751-1.834s-1.63-1.324-2.547-3.464
				c-0.917-2.14-0.917-5.196-1.63-4.585c-0.713,0.611-1.121,2.038-2.038,1.528c-0.917-0.509-0.408-2.038-1.121-2.547
				c-0.713-0.509-1.63-1.223-2.547-1.324c-0.917-0.102-1.732-0.204-2.14,1.324c-0.408,1.528,0.102,1.936,0,3.362
				s-0.306,1.019-1.426,1.528c-1.121,0.509-1.121,1.528-1.121,1.528s0.204,2.241-0.611,2.241c-0.815,0-1.834,0.102-1.63-1.324
				c0.204-1.426,1.223-2.038,0.204-2.445c-1.019-0.408-3.973-1.732-4.89-2.445c-0.917-0.713-2.038-2.241-0.815-3.26
				c1.223-1.019,2.923-1.732,2.888-2.343c-0.035-0.611,1.595-0.509,2.41-1.223c0.815-0.713,1.426-2.038,2.445-2.038
				c1.019,0,1.223,0.408,2.14,0.204c0.917-0.204,2.241-1.528,0.713-1.732c-1.528-0.204-3.668-0.713-4.89-0.102
				c-1.223,0.611-2.445-0.408-4.177-0.611s-3.668-0.509-4.279-0.306s-3.158,0.713-3.668-0.713c-0.509-1.426-1.63-1.121-2.343-1.324
				c-0.713-0.204-3.057-1.019-3.973-0.611C118.639,80.055,117.213,80.259,117.213,80.259z"/>
			<path fill="#67A3AB" d="M156.642,82.297c0,0-0.306,1.528,0.509,2.649s1.019,0.509,0.713,2.14
				c-0.306,1.63-0.204,2.649,0.815,4.279c1.019,1.63,0.713,2.853,2.241,3.158c1.528,0.306,1.223,0.102,1.63-1.121
				c0.408-1.223,0.955-2.547,1.7-2.649c0.745-0.102,1.051-0.408,2.273-0.713C167.747,89.734,160.819,83.316,156.642,82.297z"/>
			<path fill="#67A3AB" d="M180.584,116.326c0,0,0.611,5.502,0,9.068c-0.611,3.566-1.936,9.781-1.936,9.781
				s-1.834,2.038-2.445,0.408c-0.611-1.63-2.751-3.973-2.241-4.585c0.509-0.611,0.713-2.343,0.713-3.566
				c0-1.223,0.204-3.787,1.121-4.593c0.917-0.806,1.417-1.214,1.574-2.233c0.158-1.019-0.148-2.318,0.871-2.687
				C179.26,117.549,180.584,116.326,180.584,116.326z"/>
		</g>
	</g>
	<g>
		<g>
			<path fill="#FFFFFF" d="M77.377,126.881c0,0.642-0.52,1.162-1.162,1.162H56.438c-0.642,0-1.162-0.52-1.162-1.162v-12.928
				c0-0.642,0.52-1.162,1.162-1.162h19.777c0.642,0,1.162,0.52,1.162,1.162V126.881z"/>
			<path fill="#6D6E70" d="M76.215,128.261H56.438c-0.761,0-1.38-0.619-1.38-1.38v-12.928c0-0.761,0.619-1.38,1.38-1.38h19.777
				c0.761,0,1.38,0.619,1.38,1.38v12.928C77.595,127.642,76.976,128.261,76.215,128.261z M56.438,113.009
				c-0.521,0-0.944,0.423-0.944,0.944v12.928c0,0.521,0.423,0.944,0.944,0.944h19.777c0.521,0,0.944-0.423,0.944-0.944v-12.928
				c0-0.521-0.423-0.944-0.944-0.944H56.438z"/>
		</g>
		<g>
			<rect x="63.954" y="128.043" fill="#FFFFFF" width="4.745" height="3.438"/>
			<path fill="#6D6E70" d="M68.916,131.699h-5.181v-3.874h5.181V131.699z M64.172,131.263h4.309v-3.002h-4.309V131.263z"/>
		</g>
		<g>
			<path fill="#FFFFFF" d="M70.902,132.183c0,0.388-0.314,0.702-0.702,0.702h-7.747c-0.388,0-0.702-0.314-0.702-0.702l0,0
				c0-0.388,0.314-0.702,0.702-0.702H70.2C70.588,131.481,70.902,131.795,70.902,132.183L70.902,132.183z"/>
			<path fill="#6D6E70" d="M70.2,133.103h-7.748c-0.507,0-0.92-0.413-0.92-0.92s0.413-0.92,0.92-0.92H70.2
				c0.507,0,0.92,0.413,0.92,0.92S70.707,133.103,70.2,133.103z M62.452,131.699c-0.267,0-0.484,0.217-0.484,0.484
				s0.217,0.484,0.484,0.484H70.2c0.267,0,0.484-0.217,0.484-0.484s-0.217-0.484-0.484-0.484H62.452z"/>
		</g>
		<g>
			<rect x="56.957" y="114.389" fill="#67A3AB" width="18.739" height="10.822"/>
			<path fill="#6D6E70" d="M75.913,125.429H56.739v-11.258h19.175V125.429z M57.175,124.993h18.303v-10.386H57.175V124.993z"/>
		</g>
	</g>
	<g>
		<g>
			<path fill="#FFFFFF" d="M216.377,126.881c0,0.642-0.52,1.162-1.162,1.162h-19.777c-0.642,0-1.162-0.52-1.162-1.162v-12.928
				c0-0.642,0.52-1.162,1.162-1.162h19.777c0.642,0,1.162,0.52,1.162,1.162V126.881z"/>
			<path fill="#6D6E70" d="M215.215,128.261h-19.777c-0.761,0-1.38-0.619-1.38-1.38v-12.928c0-0.761,0.619-1.38,1.38-1.38h19.777
				c0.761,0,1.38,0.619,1.38,1.38v12.928C216.595,127.642,215.976,128.261,215.215,128.261z M195.438,113.009
				c-0.521,0-0.944,0.423-0.944,0.944v12.928c0,0.521,0.423,0.944,0.944,0.944h19.777c0.521,0,0.944-0.423,0.944-0.944v-12.928
				c0-0.521-0.423-0.944-0.944-0.944H195.438z"/>
		</g>
		<g>
			<rect x="202.954" y="128.043" fill="#FFFFFF" width="4.745" height="3.438"/>
			<path fill="#6D6E70" d="M207.916,131.699h-5.181v-3.874h5.181V131.699z M203.172,131.263h4.309v-3.002h-4.309V131.263z"/>
		</g>
		<g>
			<path fill="#FFFFFF" d="M209.902,132.183c0,0.388-0.314,0.702-0.702,0.702h-7.747c-0.388,0-0.702-0.314-0.702-0.702l0,0
				c0-0.388,0.314-0.702,0.702-0.702h7.747C209.588,131.481,209.902,131.795,209.902,132.183L209.902,132.183z"/>
			<path fill="#6D6E70" d="M209.2,133.103h-7.748c-0.507,0-0.92-0.413-0.92-0.92s0.413-0.92,0.92-0.92h7.748
				c0.507,0,0.92,0.413,0.92,0.92S209.707,133.103,209.2,133.103z M201.452,131.699c-0.267,0-0.484,0.217-0.484,0.484
				s0.217,0.484,0.484,0.484h7.748c0.267,0,0.484-0.217,0.484-0.484s-0.217-0.484-0.484-0.484H201.452z"/>
		</g>
		<g>
			<rect x="195.957" y="114.389" fill="#FFFFFF" width="18.739" height="10.822"/>
			<path fill="#6D6E70" d="M214.913,125.429h-19.175v-11.258h19.175V125.429z M196.175,124.993h18.303v-10.386h-18.303V124.993z"/>
		</g>
	</g>
	<g>
		<g>
			<path fill="#FFFFFF" d="M146.377,193.881c0,0.642-0.52,1.162-1.162,1.162h-19.777c-0.642,0-1.162-0.52-1.162-1.162v-12.928
				c0-0.642,0.52-1.162,1.162-1.162h19.777c0.642,0,1.162,0.52,1.162,1.162V193.881z"/>
			<path fill="#6D6E70" d="M145.215,195.261h-19.777c-0.761,0-1.38-0.619-1.38-1.38v-12.928c0-0.761,0.619-1.38,1.38-1.38h19.777
				c0.761,0,1.38,0.619,1.38,1.38v12.928C146.595,194.642,145.976,195.261,145.215,195.261z M125.438,180.009
				c-0.521,0-0.944,0.423-0.944,0.944v12.928c0,0.521,0.423,0.944,0.944,0.944h19.777c0.521,0,0.944-0.423,0.944-0.944v-12.928
				c0-0.521-0.423-0.944-0.944-0.944H125.438z"/>
		</g>
		<g>
			<rect x="132.954" y="195.043" fill="#FFFFFF" width="4.745" height="3.438"/>
			<path fill="#6D6E70" d="M137.916,198.699h-5.181v-3.874h5.181V198.699z M133.172,198.263h4.309v-3.002h-4.309V198.263z"/>
		</g>
		<g>
			<path fill="#FFFFFF" d="M139.902,199.183c0,0.388-0.314,0.702-0.702,0.702h-7.747c-0.388,0-0.702-0.314-0.702-0.702l0,0
				c0-0.388,0.314-0.702,0.702-0.702h7.747C139.588,198.481,139.902,198.795,139.902,199.183L139.902,199.183z"/>
			<path fill="#6D6E70" d="M139.2,200.103h-7.748c-0.507,0-0.92-0.413-0.92-0.92s0.413-0.92,0.92-0.92h7.748
				c0.507,0,0.92,0.413,0.92,0.92S139.707,200.103,139.2,200.103z M131.452,198.699c-0.267,0-0.484,0.217-0.484,0.484
				s0.217,0.484,0.484,0.484h7.748c0.267,0,0.484-0.217,0.484-0.484s-0.217-0.484-0.484-0.484H131.452z"/>
		</g>
		<g>
			<rect x="125.957" y="181.389" fill="#58595B" width="18.739" height="10.822"/>
			<path fill="#6D6E70" d="M144.913,192.429h-19.175v-11.258h19.175V192.429z M126.175,191.993h18.303v-10.386h-18.303V191.993z"/>
		</g>
	</g>
	<g>
		<g>
			<path fill="#FFFFFF" d="M146.377,56.881c0,0.642-0.52,1.162-1.162,1.162h-19.777c-0.642,0-1.162-0.52-1.162-1.162V43.953
				c0-0.642,0.52-1.162,1.162-1.162h19.777c0.642,0,1.162,0.52,1.162,1.162V56.881z"/>
			<path fill="#6D6E70" d="M145.215,58.261h-19.777c-0.761,0-1.38-0.619-1.38-1.38V43.953c0-0.761,0.619-1.38,1.38-1.38h19.777
				c0.761,0,1.38,0.619,1.38,1.38v12.928C146.595,57.642,145.976,58.261,145.215,58.261z M125.438,43.009
				c-0.521,0-0.944,0.423-0.944,0.944v12.928c0,0.521,0.423,0.944,0.944,0.944h19.777c0.521,0,0.944-0.423,0.944-0.944V43.953
				c0-0.521-0.423-0.944-0.944-0.944H125.438z"/>
		</g>
		<g>
			<rect x="132.954" y="58.043" fill="#FFFFFF" width="4.745" height="3.438"/>
			<path fill="#6D6E70" d="M137.916,61.699h-5.181v-3.874h5.181V61.699z M133.172,61.263h4.309v-3.002h-4.309V61.263z"/>
		</g>
		<g>
			<path fill="#FFFFFF" d="M139.902,62.183c0,0.388-0.314,0.702-0.702,0.702h-7.747c-0.388,0-0.702-0.314-0.702-0.702l0,0
				c0-0.388,0.314-0.702,0.702-0.702h7.747C139.588,61.481,139.902,61.795,139.902,62.183L139.902,62.183z"/>
			<path fill="#6D6E70" d="M139.2,63.103h-7.748c-0.507,0-0.92-0.413-0.92-0.92c0-0.507,0.413-0.92,0.92-0.92h7.748
				c0.507,0,0.92,0.413,0.92,0.92C140.12,62.69,139.707,63.103,139.2,63.103z M131.452,61.699c-0.267,0-0.484,0.217-0.484,0.484
				c0,0.267,0.217,0.484,0.484,0.484h7.748c0.267,0,0.484-0.217,0.484-0.484c0-0.267-0.217-0.484-0.484-0.484H131.452z"/>
		</g>
		<g>
			<rect x="125.957" y="44.389" fill="#FFFFFF" width="18.739" height="10.822"/>
			<path fill="#6D6E70" d="M144.913,55.429h-19.175V44.171h19.175V55.429z M126.175,54.993h18.303V44.607h-18.303V54.993z"/>
		</g>
	</g>
	<g>
		<g>
			<path fill="#FFFFFF" d="M196.377,76.881c0,0.642-0.52,1.162-1.162,1.162h-19.777c-0.642,0-1.162-0.52-1.162-1.162V63.953
				c0-0.642,0.52-1.162,1.162-1.162h19.777c0.642,0,1.162,0.52,1.162,1.162V76.881z"/>
			<path fill="#6D6E70" d="M195.215,78.261h-19.777c-0.761,0-1.38-0.619-1.38-1.38V63.953c0-0.761,0.619-1.38,1.38-1.38h19.777
				c0.761,0,1.38,0.619,1.38,1.38v12.928C196.595,77.642,195.976,78.261,195.215,78.261z M175.438,63.009
				c-0.521,0-0.944,0.423-0.944,0.944v12.928c0,0.521,0.423,0.944,0.944,0.944h19.777c0.521,0,0.944-0.423,0.944-0.944V63.953
				c0-0.521-0.423-0.944-0.944-0.944H175.438z"/>
		</g>
		<g>
			<rect x="182.954" y="78.043" fill="#FFFFFF" width="4.745" height="3.438"/>
			<path fill="#6D6E70" d="M187.916,81.699h-5.181v-3.874h5.181V81.699z M183.172,81.263h4.309v-3.002h-4.309V81.263z"/>
		</g>
		<g>
			<path fill="#FFFFFF" d="M189.902,82.183c0,0.388-0.314,0.702-0.702,0.702h-7.747c-0.388,0-0.702-0.314-0.702-0.702l0,0
				c0-0.388,0.314-0.702,0.702-0.702h7.747C189.588,81.481,189.902,81.795,189.902,82.183L189.902,82.183z"/>
			<path fill="#6D6E70" d="M189.2,83.103h-7.748c-0.507,0-0.92-0.413-0.92-0.92c0-0.507,0.413-0.92,0.92-0.92h7.748
				c0.507,0,0.92,0.413,0.92,0.92C190.12,82.69,189.707,83.103,189.2,83.103z M181.452,81.699c-0.267,0-0.484,0.217-0.484,0.484
				c0,0.267,0.217,0.484,0.484,0.484h7.748c0.267,0,0.484-0.217,0.484-0.484c0-0.267-0.217-0.484-0.484-0.484H181.452z"/>
		</g>
		<g>
			<rect x="175.957" y="64.389" fill="#ED3325" width="18.739" height="10.822"/>
			<path fill="#6D6E70" d="M194.913,75.429h-19.175V64.171h19.175V75.429z M176.175,74.993h18.303V64.607h-18.303V74.993z"/>
		</g>
	</g>
	<g>
		<g>
			<path fill="#FFFFFF" d="M96.377,76.881c0,0.642-0.52,1.162-1.162,1.162H75.438c-0.642,0-1.162-0.52-1.162-1.162V63.953
				c0-0.642,0.52-1.162,1.162-1.162h19.777c0.642,0,1.162,0.52,1.162,1.162V76.881z"/>
			<path fill="#6D6E70" d="M95.215,78.261H75.438c-0.761,0-1.38-0.619-1.38-1.38V63.953c0-0.761,0.619-1.38,1.38-1.38h19.777
				c0.761,0,1.38,0.619,1.38,1.38v12.928C96.595,77.642,95.976,78.261,95.215,78.261z M75.438,63.009
				c-0.521,0-0.944,0.423-0.944,0.944v12.928c0,0.521,0.423,0.944,0.944,0.944h19.777c0.521,0,0.944-0.423,0.944-0.944V63.953
				c0-0.521-0.423-0.944-0.944-0.944H75.438z"/>
		</g>
		<g>
			<rect x="82.954" y="78.043" fill="#FFFFFF" width="4.745" height="3.438"/>
			<path fill="#6D6E70" d="M87.916,81.699h-5.181v-3.874h5.181V81.699z M83.172,81.263h4.309v-3.002h-4.309V81.263z"/>
		</g>
		<g>
			<path fill="#FFFFFF" d="M89.902,82.183c0,0.388-0.314,0.702-0.702,0.702h-7.747c-0.388,0-0.702-0.314-0.702-0.702l0,0
				c0-0.388,0.314-0.702,0.702-0.702H89.2C89.588,81.481,89.902,81.795,89.902,82.183L89.902,82.183z"/>
			<path fill="#6D6E70" d="M89.2,83.103h-7.748c-0.507,0-0.92-0.413-0.92-0.92c0-0.507,0.413-0.92,0.92-0.92H89.2
				c0.507,0,0.92,0.413,0.92,0.92C90.12,82.69,89.707,83.103,89.2,83.103z M81.452,81.699c-0.267,0-0.484,0.217-0.484,0.484
				c0,0.267,0.217,0.484,0.484,0.484H89.2c0.267,0,0.484-0.217,0.484-0.484c0-0.267-0.217-0.484-0.484-0.484H81.452z"/>
		</g>
		<g>
			<rect x="75.957" y="64.389" fill="#FFFFFF" width="18.739" height="10.822"/>
			<path fill="#6D6E70" d="M94.913,75.429H75.739V64.171h19.175V75.429z M76.175,74.993h18.303V64.607H76.175V74.993z"/>
		</g>
	</g>
	<g>
		<g>
			<path fill="#FFFFFF" d="M96.377,176.881c0,0.642-0.52,1.162-1.162,1.162H75.438c-0.642,0-1.162-0.52-1.162-1.162v-12.928
				c0-0.642,0.52-1.162,1.162-1.162h19.777c0.642,0,1.162,0.52,1.162,1.162V176.881z"/>
			<path fill="#6D6E70" d="M95.215,178.261H75.438c-0.761,0-1.38-0.619-1.38-1.38v-12.928c0-0.761,0.619-1.38,1.38-1.38h19.777
				c0.761,0,1.38,0.619,1.38,1.38v12.928C96.595,177.642,95.976,178.261,95.215,178.261z M75.438,163.009
				c-0.521,0-0.944,0.423-0.944,0.944v12.928c0,0.521,0.423,0.944,0.944,0.944h19.777c0.521,0,0.944-0.423,0.944-0.944v-12.928
				c0-0.521-0.423-0.944-0.944-0.944H75.438z"/>
		</g>
		<g>
			<rect x="82.954" y="178.043" fill="#FFFFFF" width="4.745" height="3.438"/>
			<path fill="#6D6E70" d="M87.916,181.699h-5.181v-3.874h5.181V181.699z M83.172,181.263h4.309v-3.002h-4.309V181.263z"/>
		</g>
		<g>
			<path fill="#FFFFFF" d="M89.902,182.183c0,0.388-0.314,0.702-0.702,0.702h-7.747c-0.388,0-0.702-0.314-0.702-0.702l0,0
				c0-0.388,0.314-0.702,0.702-0.702H89.2C89.588,181.481,89.902,181.795,89.902,182.183L89.902,182.183z"/>
			<path fill="#6D6E70" d="M89.2,183.103h-7.748c-0.507,0-0.92-0.413-0.92-0.92s0.413-0.92,0.92-0.92H89.2
				c0.507,0,0.92,0.413,0.92,0.92S89.707,183.103,89.2,183.103z M81.452,181.699c-0.267,0-0.484,0.217-0.484,0.484
				s0.217,0.484,0.484,0.484H89.2c0.267,0,0.484-0.217,0.484-0.484s-0.217-0.484-0.484-0.484H81.452z"/>
		</g>
		<g>
			<rect x="75.957" y="164.389" fill="#FFFFFF" width="18.739" height="10.822"/>
			<path fill="#6D6E70" d="M94.913,175.429H75.739v-11.258h19.175V175.429z M76.175,174.993h18.303v-10.386H76.175V174.993z"/>
		</g>
	</g>
	<g>
		<g>
			<path fill="#FFFFFF" d="M196.377,176.881c0,0.642-0.52,1.162-1.162,1.162h-19.777c-0.642,0-1.162-0.52-1.162-1.162v-12.928
				c0-0.642,0.52-1.162,1.162-1.162h19.777c0.642,0,1.162,0.52,1.162,1.162V176.881z"/>
			<path fill="#6D6E70" d="M195.215,178.261h-19.777c-0.761,0-1.38-0.619-1.38-1.38v-12.928c0-0.761,0.619-1.38,1.38-1.38h19.777
				c0.761,0,1.38,0.619,1.38,1.38v12.928C196.595,177.642,195.976,178.261,195.215,178.261z M175.438,163.009
				c-0.521,0-0.944,0.423-0.944,0.944v12.928c0,0.521,0.423,0.944,0.944,0.944h19.777c0.521,0,0.944-0.423,0.944-0.944v-12.928
				c0-0.521-0.423-0.944-0.944-0.944H175.438z"/>
		</g>
		<g>
			<rect x="182.954" y="178.043" fill="#FFFFFF" width="4.745" height="3.438"/>
			<path fill="#6D6E70" d="M187.916,181.699h-5.181v-3.874h5.181V181.699z M183.172,181.263h4.309v-3.002h-4.309V181.263z"/>
		</g>
		<g>
			<path fill="#FFFFFF" d="M189.902,182.183c0,0.388-0.314,0.702-0.702,0.702h-7.747c-0.388,0-0.702-0.314-0.702-0.702l0,0
				c0-0.388,0.314-0.702,0.702-0.702h7.747C189.588,181.481,189.902,181.795,189.902,182.183L189.902,182.183z"/>
			<path fill="#6D6E70" d="M189.2,183.103h-7.748c-0.507,0-0.92-0.413-0.92-0.92s0.413-0.92,0.92-0.92h7.748
				c0.507,0,0.92,0.413,0.92,0.92S189.707,183.103,189.2,183.103z M181.452,181.699c-0.267,0-0.484,0.217-0.484,0.484
				s0.217,0.484,0.484,0.484h7.748c0.267,0,0.484-0.217,0.484-0.484s-0.217-0.484-0.484-0.484H181.452z"/>
		</g>
		<g>
			<rect x="175.957" y="164.389" fill="#FFFFFF" width="18.739" height="10.822"/>
			<path fill="#6D6E70" d="M194.913,175.429h-19.175v-11.258h19.175V175.429z M176.175,174.993h18.303v-10.386h-18.303V174.993z"/>
		</g>
	</g>
</g>
<g id="Bubbles">
</g>
</svg>
