<?xml version="1.0" encoding="utf-8"?>
<!-- Generator: Adobe Illustrator 17.1.0, SVG Export Plug-In . SVG Version: 6.00 Build 0)  -->
<!DOCTYPE svg PUBLIC "-//W3C//DTD SVG 1.1//EN" "http://www.w3.org/Graphics/SVG/1.1/DTD/svg11.dtd">
<svg version="1.1" xmlns="http://www.w3.org/2000/svg" xmlns:xlink="http://www.w3.org/1999/xlink" x="0px" y="0px"
	 viewBox="0 0 263.089 257.314" enable-background="new 0 0 263.089 257.314" xml:space="preserve">
<g id="Layer_1">
</g>
<g id="Layer_2">
</g>
<g id="Phase_3">
	<g id="Your_Icon_2_">
		<path fill="#67A3AB" d="M93.181,139.623c1.153,4.675,3.058,9.033,5.568,12.957l-7.011,7.04c-3.148,3.146-3.117,5.021-0.346,7.792
			l6.839,6.841c2.798,2.801,4.704,2.742,7.792-0.346l7.359-7.386c3.463,1.99,7.215,3.519,11.197,4.5v9.004
			c0,4.473,1.355,5.772,5.254,5.772h9.695c3.954,0,5.252-1.387,5.252-5.772v-9.004c3.982-0.981,7.733-2.511,11.197-4.5l7.533,7.558
			c3.117,3.089,4.991,3.148,7.789,0.378l6.871-6.871c2.739-2.739,2.798-4.616-0.378-7.789l-7.215-7.215
			c2.542-3.926,4.447-8.282,5.6-12.957h9.523c3.954-0.001,5.252-1.388,5.252-5.773v-8.657c0-4.272-1.127-5.772-5.254-5.772h-9.523
			c-0.981-3.982-2.511-7.733-4.5-11.197l6.868-6.839c3.03-3.03,3.288-4.906,0.375-7.792l-6.868-6.868
			c-2.742-2.742-4.704-2.711-7.792,0.375l-6.522,6.493c-3.926-2.511-8.282-4.417-12.957-5.568v-9.005
			c0-4.272-1.127-5.772-5.254-5.772h-9.695c-3.897,0-5.252,1.414-5.252,5.772v9.004c-4.675,1.153-9.033,3.058-12.957,5.568
			l-6.522-6.493c-3.089-3.086-5.05-3.117-7.792-0.375l-6.868,6.868c-2.915,2.886-2.655,4.763,0.375,7.792l6.839,6.839
			c-1.961,3.463-3.492,7.215-4.473,11.197h-9.523c-3.897,0.001-5.252,1.415-5.252,5.773v8.657c0,4.473,1.355,5.772,5.254,5.772
			H93.181z M107.67,129.522c0-14.92,12.089-27.004,27.009-27.004c14.92,0,27.004,12.085,27.004,27.004s-12.085,27.009-27.004,27.009
			S107.67,144.442,107.67,129.522z"/>
	</g>
	<path fill="#ED3325" d="M22.916,136.567c-2.027-1.353-3.381-4.056-3.381-6.424c0-2.366,1.014-4.562,3.55-5.746h-0.169
		c12.001-7.099,28.735-16.565,39.892-23.157v15.72c-4.395,2.535-10.311,5.409-25.186,13.354l0.169,0.167
		c7.945,3.551,17.072,8.959,25.017,13.692v15.889L22.916,136.567z"/>
	<path fill="#ED3325" d="M242.031,124.735c2.026,1.353,3.381,4.057,3.381,6.424s-1.014,4.562-3.551,5.746h0.17
		c-12.001,7.099-28.737,16.565-39.892,23.157v-15.72c4.395-2.534,10.311-5.408,25.186-13.353l-0.169-0.167
		c-7.943-3.551-17.072-8.959-25.017-13.692v-15.889L242.031,124.735z"/>
</g>
<g id="Bubbles">
</g>
</svg>
