<?xml version="1.0" encoding="utf-8"?>
<!-- Generator: Adobe Illustrator 16.0.0, SVG Export Plug-In . SVG Version: 6.00 Build 0)  -->
<!DOCTYPE svg PUBLIC "-//W3C//DTD SVG 1.1//EN" "http://www.w3.org/Graphics/SVG/1.1/DTD/svg11.dtd">
<svg version="1.1" id="Layer_1" xmlns="http://www.w3.org/2000/svg" xmlns:xlink="http://www.w3.org/1999/xlink" x="0px" y="0px"
	 width="104.559px" height="105.154px" viewBox="0 0 104.559 105.154" enable-background="new 0 0 104.559 105.154"
	 xml:space="preserve">
<g>
	<g>
		<path fill="#FFFFFF" d="M1.721,35.483H23.41v69.671H1.721V35.483z M12.571,0.848c6.933,0,12.56,5.626,12.56,12.551
			c0,6.932-5.627,12.559-12.56,12.559C5.611,25.957,0,20.33,0,13.398C0,6.474,5.611,0.848,12.571,0.848"/>
		<path fill="#FFFFFF" d="M37.006,35.483h20.771v9.519h0.297c2.89-5.479,9.964-11.254,20.505-11.254
			c21.925,0,25.979,14.427,25.979,33.19v38.216h-21.65V71.276c0-8.081-0.156-18.476-11.262-18.476
			c-11.276,0-12.997,8.801-12.997,17.889v34.465H37.006V35.483z"/>
	</g>
</g>
</svg>
